<?xml version="1.0" standalone="no"?>
<!DOCTYPE svg PUBLIC "-//W3C//DTD SVG 1.1//EN" "http://www.w3.org/Graphics/SVG/1.1/DTD/svg11.dtd">
<svg xmlns="http://www.w3.org/2000/svg">
<metadata>Generated by Fontastic.me</metadata>
<defs>
<font id="hamilton-icons" horiz-adv-x="512">
<font-face font-family="hamilton-icons" units-per-em="512" ascent="480" descent="-32"/>
<missing-glyph horiz-adv-x="512" />

<glyph unicode="&#97;" d="M392 142c70-24 105-45 105-62 0 0 0-54 0-54 0 0-241 0-241 0 0 0-241 0-241 0 0 0 0 54 0 54 0 17 35 38 105 62 32 12 54 24 65 36 12 12 18 28 18 48 0 8-4 16-12 25-7 10-12 22-16 38-1 4-2 7-5 9-2 2-4 3-7 4-2 1-4 4-7 9-2 5-4 12-4 22 0 5 0 10 2 13 2 4 3 6 5 6 0 0 2 2 2 2-3 17-5 32-6 45-2 19 5 38 21 58 15 19 42 29 80 29 38 0 65-10 81-29 16-20 22-39 20-58 0 0-6-45-6-45 6-2 9-10 9-21 0-10-2-17-4-22-3-5-5-8-7-9-3-1-5-2-7-4-3-2-4-5-5-9-3-17-8-29-16-38-8-9-12-17-12-25 0-20 6-36 18-48 12-12 34-24 65-36"/>
<glyph unicode="&#98;" d="M256 475c40 0 77-9 110-29 34-20 60-46 80-80 20-33 29-70 29-110 0-40-9-77-29-110-20-34-46-60-80-80-33-20-70-29-110-29-40 0-77 9-110 29-34 20-60 46-80 80-20 33-29 70-29 110 0 40 9 77 29 110 20 34 46 60 80 80 33 20 70 29 110 29z m78-148c0-1-1-2-2-3-2-2-3-3-4-3 0 0 1 1 1 2 0 1 1 2 1 3 1 1 1 2 1 2 2 1 4 2 7 4 2 1 7 2 15 3 6 2 11 1 14-3 0 1 1 2 3 4 2 2 3 3 4 3 1 1 2 1 4 2 3 0 4 1 5 2l0 6c-2 0-4 1-5 2-1 2-2 4-2 6 0 0 0-1-1-2 0 1-1 2-2 2-1 0-2 0-3 0-1-1-2-1-3 0-1 0-3 1-4 2-1 1-2 2-2 4-1 3-1 4-1 5-1 1-2 2-3 3-1 1-2 2-3 3 0 0 0 1 0 1-1 1-1 2-1 2-1 1-1 1-1 2-1 0-1 0-2 0-1 0-1 0-2-1-1-1-1-2-2-3-1-1-1-1-1-1-1 0-2 0-2 0-1 0-1 0-1 0-1 0-1-1-2-1 0 0-1-1-1-1-1 0-2-1-3-1-1 0-1 0-2 0 3 1 3 2 0 3-2 0-4 1-5 1 2 0 3 1 2 3 0 2-1 3-2 4l1 0c0 1-1 2-2 2-2 1-3 2-5 3-2 1-3 1-4 2-1 1-5 1-10 2-5 1-8 1-9 0-1-1-1-2-1-3 0 0 0-2 1-4 1-1 1-3 1-3 0-1 0-3-2-4-1-1-2-2-2-3 0-2 2-3 4-5 3-1 4-3 3-6 0-1-2-3-4-4-3-2-4-3-5-4-1-1-1-3 0-5 0-2 1-4 3-5 0 0 0-1 0-1 0 0 0-1-1-1 0-1-1-1-1-1-1-1-2-1-2-1l-1-1c-2-1-4 0-6 2-2 2-3 4-4 7-1 5-3 8-4 9-5 1-8 1-9-1-1 3-5 5-11 8-5 2-11 2-17 1 1 0 1 2 0 4-1 3-3 4-5 4 0 1 1 3 1 5 0 2 0 3 0 4 1 2 2 4 3 6 1 0 1 1 2 3 2 1 2 2 3 3 1 2 1 2 0 2 7-1 12 0 15 3 1 1 2 3 3 5 1 2 2 4 3 5 2 1 3 2 4 2 1-1 2-1 4-2 2-1 3-1 4-1 3-1 4 0 5 3 0 2-1 4-3 5 3 0 3 2 1 5-1 2-1 2-2 3-2 1-5 0-8-2-1 0-1-1 1-2 0 0-1-1-3-3-1-2-3-4-5-5-1-1-3-1-4 2 0 0-1 1-2 3-1 3-1 4-2 4-2 0-3-1-5-4 1 2 0 3-3 4-3 2-5 2-7 3 4 2 3 4-2 7-2 1-4 2-6 2-3 0-5 0-6-1-1-2-1-3-1-4 0-1 0-1 1-2 1-1 2-1 3-2 1 0 2 0 3-1 2 0 2 0 3-1 3-1 3-3 2-4 0 0-1 0-2-1-2 0-3 0-4-1-1 0-1-1-1-1-1-1-1-2 0-4 0-2 0-3-1-4-1 1-2 3-2 5-1 2-2 4-2 5 1-2-1-3-8-2l-2 0c-1 0-3 0-5 0-2-1-4-1-6-1-1 1-3 1-4 3 0 1 0 3 0 5 0 1 1 1 1 1 0 1-1 1-3 3-1 1-2 2-3 2-8-3-17-7-26-12 1 0 2 0 3 1 1 0 2 1 4 2 1 0 2 1 3 1 6 3 10 3 12 2l1 2c3-3 5-6 6-8-2 1-4 1-9 1-4-1-6-3-6-4 1-2 2-4 1-5 0 1-2 2-3 3-1 1-3 2-4 3-1 1-3 1-4 2-3 0-6-1-7-1-28-15-50-36-67-63 1-1 3-2 4-2 0-1 1-1 1-3 0-2 0-3 1-3 0-1 1 0 3 1 2-2 2-4 1-6 0 0 4-2 12-7 4-4 6-6 6-6 1-3 0-4-2-6-1 1-1 2-3 3-2 1-2 2-3 1 0-1 0-3 1-5 0-3 1-4 3-4-2 0-3-1-3-4-1-3-1-7-1-10 0-4 0-6 0-7l0 0c0-3 0-6 2-10 2-5 4-6 6-6-2 0 0-5 6-12 1-2 2-3 2-3 1 0 2-1 4-2 1-1 3-2 4-3 1-1 2-2 3-3 0-1 1-3 3-6 1-3 2-6 4-7-1-1 0-3 2-6 2-2 3-4 3-6 0 0 0 0 0 0-1-1-1-1-1-1 0-1 2-2 4-4 3-1 4-2 5-3 0-1 0-2 0-3 0-2 1-3 1-3 1-1 1-1 2-1 1 4-1 10-6 18-3 4-5 7-5 8-1 1-1 2-2 4 0 2-1 4-1 5 0 0 1-1 2-1 0 0 1 0 2-1 1 0 2-1 2-1 1 0 1-1 1-1-1-1-1-3 0-5 1-2 2-4 4-5 1-2 3-3 5-6 1-2 3-3 3-3 1-1 2-3 4-6 2-2 2-4 0-4 2 0 4-1 6-3 2-1 3-3 5-5 1-2 1-4 2-8 0-3 1-5 1-7 1-1 1-2 3-3 1-2 2-3 3-3l5-2c0 0 1-1 4-2 1-1 2-2 5-3 2-2 4-3 6-4 2 0 3-1 5-1 1 0 2 0 4 1 1 0 3 1 4 1 2 0 5-1 8-4 3-4 5-6 6-6 7-4 12-5 16-4-1 0-1 0 0-2 0-1 1-2 2-4 1-2 2-3 3-4 0-1 1-2 1-3 1-1 3-2 5-4 3-2 4-3 5-4 2 0 2 1 2 2 0-1 1-3 2-5 2-3 4-4 6-3 2 0 4 3 4 9-6-3-11-1-14 5 0 0-1 1-1 2-1 0-1 1-1 2-1 1-1 2-1 2 0 1 0 2 0 3 0 0 1 0 1 0 2 0 3 1 3 1 0 1 0 2 0 4-1 2-1 3-1 4-1 1-2 3-4 5-1 3-3 4-3 5-1-2-2-3-5-3-2 1-3 1-4 3 0 0 0-1-1-2 0 0 0-1 0-1-2 0-4 0-4 0 0 0 0 2 0 5 1 3 1 5 1 6 1 1 1 2 2 4 1 1 2 3 2 4 1 1 1 2 1 3 0 2 0 2-1 3-1 1-3 1-5 1-4 0-6-2-7-6-1 0-1-1-1-3-1-1-1-2-2-3 0-1-1-2-2-2-2-1-4-1-7-1-3 0-6 1-7 2-2 1-5 4-6 8-2 4-3 8-3 11 0 1 0 4 1 7 0 3 0 6 0 7 1 2 0 4-1 7 0 1 1 2 2 3 2 1 3 2 3 3 1 0 1 0 2 0 0 1 0 1 1 0 0 0 1 0 1 1 0 0 1 1 1 2 0 0-1 0-1 0-1 1-1 1-1 1 1 0 4 0 8 1 4 1 6 0 8-1 2-2 5-2 6 1 0 0 0 1-1 3 0 1 0 2 0 3 1-5 4-6 8-2 1-1 2-1 5-2 2 0 4 0 5-1 0 0 1-1 2-2 0 0 1-1 1-1 1 0 1 0 2 0 0 1 1 1 2 2 2-3 3-5 4-7 2-7 3-12 5-12 1-1 2-1 3-1 1 0 1 1 1 3 1 1 1 3 0 4 0 1 0 2 0 3l0 3 0 5-1 2c-2 1-4 2-5 4-1 1 0 3 1 5 1 2 2 3 4 5 0 0 1 1 2 1 1 1 3 1 5 2 1 1 2 2 3 2 4 4 6 7 4 10 2 0 3 1 4 3-1 0-1 0-2 1-1 0-1 1-2 1-1 1-1 1-1 1 1 1 2 2 0 4 1 1 2 2 2 3 1 2 2 3 3 3 1-2 3-2 6 0 1 1 1 3 0 4 1 2 3 3 6 3 3 1 4 2 5 3 1 0 2 0 2 1 0 0 1 1 1 3 0 2 0 3 0 3 1 1 3 2 5 3 2 1 3 1 3 1l5 4c1 0 1 1 0 1 4-1 7 0 9 3 2 2 1 4-2 6 1 1 1 2 0 2-2 1-3 1-5 2 1 0 2 0 4 0 1 0 2 0 3 0 2 2 2 4-2 5-4 1-8 0-13-3z m-46-251c39 7 72 25 100 54-1 1-2 1-4 1-1 1-3 1-3 1-4 2-6 2-7 3 0 1 0 2-1 3 0 1-1 2-2 3-1 0-2 1-4 2-1 1-2 2-3 2 0 1-1 1-2 2-1 1-1 1-2 1 0 1-1 1-2 2-1 0-2 0-2 0-1 0-2 0-3 0l-1 0c-1 0-1-1-2-1 0 0-1-1-1-1-1 0-1 0-1-1 0 0 0 0 0 0-4 3-8 5-11 6-1 0-2 1-3 1-1 1-2 2-3 2-1 1-2 1-3 1-1 0-2-1-3-2-1-1-1-3-2-4 0-2 0-4 0-4-1 1-1 2 0 5 1 2 1 4 0 5 0 1-1 2-3 1-1 0-2 0-3-1-1 0-2-1-3-2-2-1-2-2-3-2 0 0-1-1-2-2-2-1-2-1-3-2 0-1-1-2-1-3-1-2-1-3-2-3 0 0-1 1-3 1-2 1-3 1-3 2 1-2 1-5 1-10 1-5 1-8 2-11 1-6 0-10-4-14-5-4-8-8-8-11-1-4 0-7 3-7 0-2 0-4-2-6-1-3-2-5-2-6 0-2 0-3 1-5z"/>
<glyph unicode="&#99;" d="M347 274c0 36-12 66-37 91-25 25-55 37-91 37-35 0-65-12-90-37-25-25-38-55-38-91 0-35 13-65 38-90 25-25 55-38 90-38 36 0 66 13 91 38 25 25 37 55 37 90z m147-237c0-10-4-19-11-26-7-7-16-11-26-11-10 0-19 4-26 11l-98 98c-34-24-72-36-114-36-27 0-53 5-78 16-25 11-46 25-64 43-18 18-32 39-43 64-10 25-16 51-16 78 0 28 6 54 16 78 11 25 25 47 43 65 18 18 39 32 64 43 25 10 51 15 78 15 28 0 54-5 79-15 24-11 46-25 64-43 18-18 32-40 43-65 10-24 16-50 16-78 0-42-12-80-36-114l98-98c7-7 11-15 11-25z"/>
<glyph unicode="&#100;" d="M212 77c-11 0-21 5-28 14 0 0-92 121-92 121-6 8-8 17-6 27 1 9 5 17 13 23 7 6 16 9 26 7 10-1 18-6 24-14 0 0 60-79 60-79 0 0 152 243 152 243 5 8 13 13 22 15 9 2 18 1 27-4 8-5 13-13 15-22 3-9 1-18-4-27 0 0-179-287-179-287-7-11-16-16-28-16 0 0-2-1-2-1"/>
<glyph unicode="&#101;" d="M219 397c0 0 116-121 116-121 5-5 8-12 8-20 0-8-3-14-8-19 0 0-116-121-116-121-5-6-12-8-20-8-9 0-15 2-21 8-12 12-12 26 0 41 0 0 95 99 95 99 0 0-95 100-95 100-12 15-12 29 0 41 6 6 13 9 21 9 9 0 15-3 20-9"/>
<glyph unicode="&#102;" d="M293 397c4 6 11 9 20 9 8 0 15-3 21-9 13-12 13-26 0-41 0 0-96-100-96-100 0 0 96-99 96-99 13-15 13-29 0-41-6-6-13-8-21-8-8 0-15 2-20 8 0 0-116 121-116 121-6 5-8 11-8 19 0 8 2 15 8 20 70 74 109 114 116 121"/>
<glyph unicode="&#103;" d="M396 220c6-5 8-12 8-21 0-8-2-15-8-21-13-13-26-13-40 0 0 0-100 96-100 96 0 0-100-96-100-96-14-13-27-13-40 0-6 6-8 13-8 21 0 9 2 16 8 21 0 0 120 115 120 115 5 5 12 8 20 8 8 0 15-3 20-8 0 0 120-115 120-115"/>
<glyph unicode="&#104;" d="M435 152c-1 6-4 10-9 13l-74 43 0 0c-3 2-7 3-10 3-6 0-12-3-16-7l-22-21c-1-1-4-2-5-3 0 0-25 2-71 48-46 46-48 71-48 71 0 1 2 4 3 5l18 19c7 6 8 17 5 26l-41 76c-3 6-9 10-15 10-5 0-9-2-13-5l-50-50c-5-5-9-14-10-20 0-4-9-81 97-186 89-90 159-97 179-97 4 0 6 0 7 0 6 1 15 5 20 10l50 50c4 5 6 10 5 15z"/>
<glyph unicode="&#105;" d="M32 416l0-320 448 0 0 320z m384-32l-160-132-160 132z m-352-32l126-96-126-96z m32-224l127 103 33-25 33 25 127-103z m352 32l-126 96 126 96z"/>
<glyph unicode="&#106;" d="M256 448c-106 0-192-86-192-192 0-106 86-192 192-192 106 0 192 86 192 192 0 106-86 192-192 192z m0-333c-78 0-141 63-141 141 0 78 63 141 141 141 78 0 141-63 141-141 0-78-63-141-141-141z m84 146l0 0-120 69 0 0c-1 0-2 0-3 0-3 0-5-2-5-5 0 0 0 0 0-1l0 0 0-138 0 0c0-2 3-4 5-4 1 0 2 0 3 0l0 0 120 69 0 0c1 1 2 3 2 5 0 2-1 4-2 5z"/>
<glyph unicode="&#107;" d="M292 353l74 0-9-81-65 0 0-235-97 0 0 235-49 0 0 81 49 0 0 49c0 35 8 61 24 79 17 18 44 26 81 26l65 0 0-81-40 0c-8 0-14 0-18-2-5-1-8-3-10-6-2-4-3-7-4-10 0-3-1-8-1-14z"/>
<glyph unicode="&#108;" d="M481 395c-13-18-28-34-46-47 0-3 0-7 0-12 0-25-3-50-11-74-7-25-18-49-33-71-14-23-32-43-52-61-21-17-45-31-74-41-29-11-60-16-92-16-52 0-99 14-142 42 7-1 14-2 22-2 43 0 81 14 115 40-20 0-38 6-54 18-16 12-27 27-33 46 7-1 13-2 18-2 8 0 16 1 24 4-21 4-39 15-53 31-14 17-21 37-21 59l0 1c13-7 27-11 42-11-13 8-23 19-30 32-8 14-11 29-11 44 0 17 4 33 12 47 23-28 51-51 84-68 33-17 69-27 107-29-2 8-3 15-3 22 0 25 9 47 27 65 18 18 40 27 66 27 26 0 49-10 67-29 21 4 40 11 59 22-7-22-21-39-41-51 18 2 35 7 53 14z"/>
<glyph unicode="&#109;" d="M314 157l0-61c0-12-4-19-11-19-5 0-9 2-13 6l0 86c4 5 8 7 13 7 7 0 11-7 11-19z m97-1l0-13-26 0 0 13c0 13 4 20 13 20 8 0 13-7 13-20z m-276 63l30 0 0 26-89 0 0-26 30 0 0-163 29 0z m82-163l25 0 0 141-25 0 0-108c-6-8-11-12-16-12-4 0-6 2-6 6-1 1-1 4-1 10l0 104-25 0 0-112c0-9 1-16 2-20 2-7 8-11 17-11 9 0 19 6 29 17z m122 42l0 57c0 13 0 23-2 28-3 11-10 16-20 16-10 0-19-5-27-16l0 62-25 0 0-189 25 0 0 14c9-11 17-16 27-16 10 0 17 5 20 16 2 5 2 14 2 28z m97 3l0 4-26 0c0-10 0-16-1-18-1-6-5-10-11-10-9 0-13 7-13 20l0 25 51 0 0 29c0 15-3 26-8 33-7 10-17 15-30 15-13 0-23-5-31-15-5-7-8-18-8-33l0-49c0-15 3-26 9-33 7-10 17-15 31-15 13 0 24 5 30 15 4 5 6 10 6 16 1 1 1 7 1 16z m-174 261l0 60c0 13-4 20-12 20-8 0-12-7-12-20l0-60c0-13 4-20 12-20 8 0 12 7 12 20z m206-215c0-44-3-77-8-100-2-11-8-20-16-28-9-7-18-12-29-13-35-4-88-6-159-6-71 0-124 2-159 6-11 1-20 6-29 13-8 8-14 17-16 28-5 22-8 55-8 100 0 45 3 78 8 100 2 12 8 21 16 29 9 7 18 12 30 13 35 4 87 6 158 6 71 0 124-2 159-6 11-1 20-6 29-13 8-8 14-17 16-29 5-21 8-54 8-100z m-285 365l29 0-35-114 0-77-28 0 0 77c-3 14-9 34-18 61-7 19-13 37-18 53l30 0 20-75z m105-95l0-50c0-16-2-27-8-34-7-10-17-14-30-14-13 0-23 4-30 14-5 7-8 19-8 34l0 50c0 15 3 26 8 33 7 10 17 15 30 15 13 0 23-5 30-15 6-7 8-18 8-33z m96 46l0-142-26 0 0 15c-10-12-20-17-29-17-9 0-15 3-17 10-2 5-3 12-3 22l0 112 26 0 0-105c0-6 1-9 1-10 0-4 2-6 6-6 5 0 10 4 16 12l0 109z"/>
<glyph unicode="&#110;" d="M55 37l402 0 0 292-402 0z m110 347l0 82c0 3-1 5-3 7-2 2-4 2-7 2l-18 0c-3 0-5 0-6-2-2-2-3-4-3-7l0-82c0-3 1-5 3-7 1-1 3-2 6-2l18 0c3 0 5 1 7 2 2 2 3 4 3 7z m219 0l0 82c0 3-1 5-3 7-1 2-3 2-6 2l-18 0c-3 0-5 0-7-2-2-2-3-4-3-7l0-82c0-3 1-5 3-7 2-1 4-2 7-2l18 0c3 0 5 1 6 2 2 2 3 4 3 7z m110 18l0-365c0-10-4-19-11-26-7-7-16-11-26-11l-402 0c-10 0-19 4-26 11-7 7-11 16-11 26l0 365c0 10 4 19 11 26 7 7 16 11 26 11l36 0 0 27c0 13 5 24 14 33 9 9 20 13 32 13l18 0c13 0 24-4 33-13 9-9 13-20 13-33l0-27 110 0 0 27c0 13 4 24 13 33 9 9 20 13 33 13l18 0c12 0 23-4 32-13 9-9 14-20 14-33l0-27 36 0c10 0 19-4 26-11 7-7 11-16 11-26z"/>
<glyph unicode="&#111;" d="M477 350c0-7-2-14-8-19l-206-207-39-39c-6-5-12-8-20-8-7 0-14 3-19 8l-142 142c-6 6-8 12-8 20 0 7 2 14 8 19l38 39c6 5 12 8 20 8 7 0 14-3 19-8l84-84 188 188c5 5 12 8 19 8 8 0 14-3 20-8l38-39c6-6 8-12 8-20z"/>
<glyph unicode="&#113;" d="M136 333l0-283-94 0 0 283z m6 88c0-14-4-26-14-35-10-9-23-14-39-14l0 0c-16 0-29 5-38 14-10 9-14 21-14 35 0 14 4 26 14 35 10 9 23 14 39 14 16 0 28-5 38-14 9-9 14-21 14-35z m333-208l0-163-94 0 0 152c0 20-3 35-11 47-8 11-20 17-36 17-12 0-22-4-30-10-9-7-15-15-19-25-2-5-3-13-3-23l0-158-94 0c1 76 1 138 1 185 0 47 0 76 0 85l-1 13 94 0 0-41 0 0c4 6 7 12 11 16 4 5 10 10 17 15 6 5 15 10 24 13 10 3 21 4 33 4 33 0 59-11 79-32 20-22 29-54 29-95z"/>
<glyph unicode="&#114;" d="M416 352l-96 0 0 160-128 0 0-160-96 0 160-192z m-320-352l320 0 0 96-320 0z"/>
<glyph unicode="&#115;" d="M183 293l146 0 0 54c0 21-7 38-21 52-15 14-32 22-52 22-20 0-37-8-52-22-14-14-21-31-21-52z m238-28l0-164c0-8-3-15-8-20-6-5-12-8-20-8l-274 0c-8 0-14 3-20 8-5 5-8 12-8 20l0 164c0 8 3 14 8 20 6 5 12 8 20 8l9 0 0 54c0 35 13 66 38 91 25 25 55 37 90 37 35 0 65-12 90-37 25-25 38-56 38-91l0-54 9 0c8 0 14-3 20-8 5-6 8-12 8-20z"/>
<glyph unicode="&#116;" d="M146 155l0-54c0-8-2-15-8-20-5-5-12-8-19-8l-92 0c-7 0-14 3-19 8-5 5-8 12-8 20l0 54c0 8 3 15 8 20 5 5 12 8 19 8l92 0c7 0 14-3 19-8 6-5 8-12 8-20z m0 147l0-55c0-8-2-14-8-20-5-5-12-8-19-8l-92 0c-7 0-14 3-19 8-5 6-8 12-8 20l0 55c0 7 3 14 8 19 5 5 12 8 19 8l92 0c7 0 14-3 19-8 6-5 8-12 8-19z m366-147l0-54c0-8-3-15-8-20-5-5-12-8-19-8l-275 0c-7 0-14 3-19 8-5 5-8 12-8 20l0 54c0 8 3 15 8 20 5 5 12 8 19 8l275 0c7 0 14-3 19-8 5-5 8-12 8-20z m-366 293l0-55c0-7-2-14-8-19-5-6-12-8-19-8l-92 0c-7 0-14 2-19 8-5 5-8 12-8 19l0 55c0 8 3 14 8 19 5 6 12 8 19 8l92 0c7 0 14-2 19-8 6-5 8-11 8-19z m366-146l0-55c0-8-3-14-8-20-5-5-12-8-19-8l-275 0c-7 0-14 3-19 8-5 6-8 12-8 20l0 55c0 7 3 14 8 19 5 5 12 8 19 8l275 0c7 0 14-3 19-8 5-5 8-12 8-19z m0 146l0-55c0-7-3-14-8-19-5-6-12-8-19-8l-275 0c-7 0-14 2-19 8-5 5-8 12-8 19l0 55c0 8 3 14 8 19 5 6 12 8 19 8l275 0c7 0 14-2 19-8 5-5 8-11 8-19z"/>
<glyph unicode="&#117;" d="M238 219l0-109c0-10-4-19-11-26-7-7-16-11-26-11l-146 0c-10 0-19 4-26 11-7 7-11 16-11 26l0 109c0 10 4 19 11 26 7 7 16 11 26 11l146 0c10 0 19-4 26-11 7-7 11-16 11-26z m0 220l0-110c0-10-4-18-11-26-7-7-16-10-26-10l-146 0c-10 0-19 3-26 10-7 8-11 16-11 26l0 110c0 10 4 18 11 26 7 7 16 10 26 10l146 0c10 0 19-3 26-10 7-8 11-16 11-26z m256-220l0-109c0-10-4-19-11-26-7-7-16-11-26-11l-146 0c-10 0-19 4-26 11-7 7-11 16-11 26l0 109c0 10 4 19 11 26 7 7 16 11 26 11l146 0c10 0 19-4 26-11 7-7 11-16 11-26z m0 220l0-110c0-10-4-18-11-26-7-7-16-10-26-10l-146 0c-10 0-19 3-26 10-7 8-11 16-11 26l0 110c0 10 4 18 11 26 7 7 16 10 26 10l146 0c10 0 19-3 26-10 7-8 11-16 11-26z"/>
<glyph unicode="&#118;" d="M155 59c-14 0-32 5-50 23-24 24-27 47-25 62 2 17 11 34 27 50l150 151c43 42 71 26 83 13 16-15 26-42-14-82l-138-139-27 27 138 139c22 21 17 26 14 28-1 2-7 8-29-13l-150-151c-7-7-15-17-16-28-1-9 4-19 14-30 13-13 23-12 26-11 9 1 19 7 30 18 13 12 167 166 178 178 15 15 24 29 28 42 5 20-1 38-20 57-19 19-51 40-98-8l-165-165c-8-7-20-7-27 0-8 8-8 20 0 27l165 165c51 51 106 54 152 8 36-36 36-71 30-94-6-20-18-39-38-59-11-12-166-166-178-178-17-17-34-26-51-29-3 0-6-1-9-1z"/>
<glyph unicode="&#119;" d="M256 471c59 0 110-21 152-63 42-42 63-93 63-152 0-59-21-110-63-152-42-42-93-63-152-63-59 0-110 21-152 63-42 42-63 93-63 152 0 59 21 110 63 152 42 42 93 63 152 63m27-241c0 0 102 0 102 0 0 0 0 53 0 53 0 0-102 0-102 0 0 0 0 103 0 103 0 0-53 0-53 0 0 0 0-103 0-103 0 0-103 0-103 0 0 0 0-53 0-53 0 0 103 0 103 0 0 0 0-103 0-103 0 0 53 0 53 0 0 0 0 103 0 103"/>
<glyph unicode="&#120;" d="M367 176c6-6 9-13 9-22 0-8-3-16-9-22-6-5-13-8-22-8-8 0-16 3-22 8 0 0-68 78-68 78 0 0-67-78-67-78-6-5-14-8-22-8-9 0-16 3-22 8-6 6-8 14-8 22 0 9 2 16 8 22 0 0 71 80 71 80 0 0-71 81-71 81-6 6-8 13-8 22 0 8 2 16 8 22 6 5 13 8 22 8 8 0 16-3 22-8 0 0 67-78 67-78 0 0 68 78 68 78 6 5 14 8 22 8 9 0 16-3 22-8 6-6 9-14 9-22 0-9-3-16-9-22 0 0-71-81-71-81 0 0 71-80 71-80"/>
<glyph unicode="&#121;" d="M361 205c-7-23-21-42-40-56-19-14-41-21-65-21-24 0-46 7-65 21-19 14-33 33-40 56-1 5-1 9 2 14 2 4 5 7 10 9 5 1 10 1 14-1 5-3 8-6 9-11 5-16 14-28 27-37 13-10 27-14 43-14 16 0 30 4 43 14 13 9 22 21 27 37 1 5 4 8 9 11 4 2 9 2 14 1 5-2 8-5 10-9 3-5 3-9 2-14z m-142 124c0-10-3-19-10-26-7-7-16-10-26-10-10 0-19 3-26 10-7 7-11 16-11 26 0 10 4 19 11 26 7 7 16 11 26 11 10 0 19-4 26-11 7-7 10-16 10-26z m147 0c0-10-4-19-11-26-7-7-16-10-26-10-10 0-19 3-26 10-7 7-10 16-10 26 0 10 3 19 10 26 7 7 16 11 26 11 10 0 19-4 26-11 7-7 11-16 11-26z m73-73c0 25-5 48-15 71-9 23-22 42-39 58-16 17-35 30-58 39-23 10-46 15-71 15-25 0-48-5-71-15-23-9-42-22-58-39-17-16-30-35-39-58-10-23-15-46-15-71 0-25 5-48 15-71 9-23 22-42 39-58 16-17 35-30 58-39 23-10 46-15 71-15 25 0 48 5 71 15 23 9 42 22 58 39 17 16 30 35 39 58 10 23 15 46 15 71z m36 0c0-40-9-77-29-110-20-34-46-60-80-80-33-20-70-29-110-29-40 0-77 9-110 29-34 20-60 46-80 80-20 33-29 70-29 110 0 40 9 77 29 110 20 34 46 60 80 80 33 20 70 29 110 29 40 0 77-9 110-29 34-20 60-46 80-80 20-33 29-70 29-110z"/>
<glyph unicode="&#122;" d="M317 329l14 0 0-41-14 0z m-142-51l14 0 0-42-14 0z m202 9l13 0 0 33 17 0 0 9-48 0 0-9 18 0z m-231 18l23 0 0-18 14 0 0 42-14 0 0-15-23 0 0 15-14 0 0-42 14 0z m226-7l-24 0 0 31-13 0 0-42 37 0z m-59-20l-13 0 0-42 38 0 0 11-25 0z m152 36l20-27 20 0 0 42-13 0 0-26-23 26-18 0 0-42 14 0z m-205 3l11-30 17 0 12 31 0-31 13 0 0 42-23 0-10-26-10 26-24 0 0-42 14 0z m-197-50l0-31 14 0 0 42-24 0-10-26-10 26-24 0 0-42 14 0 0 30 11-30 17 0z m141 28l21 0 0 1 4-9 15 0-21 42-16 0-22-42 15 0z m11 22l6-12-12 0z m65-73l0 1 3-9 15 0-21 42-16 0-21-42 15 0 3 8 22 0z m-11 22l6-13-12 0z m-147-19l-27 0 0 5 26 0 0 11-26 0 0 5 26 0 0 10-41 0 0-42 42 0z m52 10c0 13-8 21-24 21l-25 0 0-42 25 0c16 0 24 8 24 21z m-34-10l0 21 7 0c8 0 11-3 11-11 0-7-3-10-11-10z m86 6c-1-5-3-7-8-7-7 0-10 4-10 11 0 7 3 11 10 11 5 0 8-3 8-8l17 0c0 12-9 19-25 19-17 0-26-8-26-22 0-14 9-22 26-22 15 0 24 6 26 18l-18 0z m-216-42l2 0 0-25-2 0z m16-6c-4 0-5-2-6-4l0 3-2 0c0-1 0-3 0-4l0-14 2 0 0 10c0 3 1 7 6 7 3 0 4-2 4-6l0-11 2 0 0 12c0 4-2 7-6 7z m18-18c-2 0-3 2-3 3l0 12 5 0 0 2-5 0 0 5-2 0 0-5-3 0 0-2 3 0 0-10c0-4 0-7 5-7 1 0 2 1 2 1l0 2c-1 0-1-1-2-1z m12 18c-4 0-8-4-8-10 0-5 3-10 9-10 1 0 3 1 5 1l0 3c-1-1-3-2-5-2-4 0-6 4-6 7l12 0 0 2c0 4-2 9-7 9z m-5-9c0 3 2 7 5 7 4 0 5-4 5-7z m17 17l2 0 0-27-2 0z m8 0l2 0 0-27-2 0z m8-1l2 0 0-3-2 0z m0-8l2 0 0-18-2 0z m20-2c-2 2-3 3-6 3-5 0-7-4-7-10 0-4 2-9 7-9 3 0 5 1 6 4 0-6-1-10-6-10-3 0-4 1-6 1l0-2c1 0 3-1 6-1 6 0 8 4 8 10l0 16-2 0z m-6-14c-3 0-5 3-5 7 0 4 1 8 6 8 4 0 5-4 5-8 0-3-1-7-6-7z m20 17c-4 0-8-4-8-10 0-5 3-10 9-10 1 0 4 1 5 1l0 3c-1-1-3-2-5-2-4 0-6 4-6 7l12 0 0 2c0 4-2 9-7 9z m-5-9c0 3 2 7 5 7 4 0 5-4 5-7z m25 9c-4 0-5-2-6-4l0 3-2 0c0-1 0-3 0-4l0-14 2 0 0 10c0 3 1 7 5 7 4 0 5-2 5-6l0-11 2 0 0 12c0 4-2 7-6 7z m18-18c-2 0-3 2-3 3l0 12 5 0 0 2-5 0 0 5-2 0 0-5-3 0 0-2 3 0 0-10c0-4 0-7 4-7 2 0 3 1 3 1l0 2c-1 0-1-1-2-1z m32 24l-8-23-8 23-3 0 9-25 3 0 10 25z m10-6c-5 0-8-4-8-10 0-5 3-10 9-10 1 0 3 1 5 1l0 3c-1-1-3-2-5-2-4 0-6 4-6 7l12 0 0 2c0 4-2 9-7 9z m-5-9c0 3 2 7 5 7 4 0 5-4 5-7z m25 9c-4 0-6-2-6-4l0 3-2 0c0-1 0-3 0-4l0-14 2 0 0 10c0 3 1 7 5 7 4 0 5-2 5-6l0-11 2 0 0 12c0 4-2 7-6 7z m18-18c-2 0-3 2-3 3l0 12 5 0 0 2-5 0 0 5-2 0 0-5-3 0 0-2 3 0 0-10c0-4 0-7 4-7 2 0 3 1 3 1l0 2c-1 0-1-1-2-1z m6 25l2 0 0-3-2 0z m0-8l2 0 0-18-2 0z m8 9l2 0 0-27-2 0z m20-15c0 4-2 6-6 6-2 0-4 0-6-1l0-2c2 1 4 2 6 2 3 0 4-2 4-5l0-1-1 0c-4 0-11 0-11-6 0-2 1-6 6-6 2 0 5 2 6 4l0-3 2 0c0 1 0 2 0 3l0 9z m-2-4c0-2 0-7-6-7-2 0-3 1-3 4 0 4 4 4 8 4l1 0z m14-7c-2 0-3 2-3 3l0 12 4 0 0 2-4 0 0 5-2 0 0-5-4 0 0-2 4 0 0-10c0-4 0-7 4-7 1 0 2 1 3 1l0 2c-1 0-1-1-2-1z m6 25l2 0 0-3-2 0z m0-8l2 0 0-18-2 0z m15 1c-6 0-9-5-9-10 0-5 3-10 9-10 6 0 8 5 8 10 0 5-2 10-8 10z m0-18c-4 0-6 4-6 8 0 4 2 8 6 8 4 0 6-4 6-8 0-4-2-8-6-8z m21 18c-4 0-5-2-6-4l0 3-2 0c0-1 0-3 0-4l0-14 2 0 0 10c0 3 1 7 5 7 4 0 5-2 5-6l0-11 2 0 0 12c0 4-2 7-6 7z m22-5c0 2 2 3 4 3 2 0 3-1 4-1l1 2c-2 0-4 0-5 0-3 0-6-1-6-5 0-5 9-4 9-8 0-3-2-4-4-4-2 0-4 1-5 1l0-2c2-1 3-1 5-1 3 0 7 2 7 6 0 6-10 5-10 9z m14 12l2 0 0-3-2 0z m0-8l2 0 0-18-2 0z m16 1c-4 0-6-2-6-4l0 3-2 0c0-1 0-3 0-4l0-14 2 0 0 10c0 3 1 7 5 7 4 0 5-2 5-6l0-11 2 0 0 12c0 4-2 7-6 7z m20-2c1 0 2-1 4-1l0 2c-1 0-2 1-5 1-5 0-9-4-9-10 0-5 3-10 9-10 2 0 3 1 5 1l0 2c-2 0-3-1-5-1-4 0-6 4-6 8 0 4 2 8 7 8z m14 2c-5 0-8-4-8-10 0-5 2-10 9-10 1 0 3 1 5 1l0 3c-1-1-4-2-5-2-4 0-6 4-6 7l12 0 0 2c0 4-2 9-7 9z m-5-9c0 3 2 7 5 7 3 0 5-4 5-7z m28 10l1-1 5 3 0-22 2 0 0 25-2 0z m26 5c-6 0-9-3-9-8 0-6 5-8 8-8 3 0 5 1 6 3 0-5-2-10-8-10-2 0-4 0-4 1l-1-3c2 0 3 0 4 0 9 0 12 6 12 13 0 6-2 12-8 12z m-1-14c-3 0-5 2-5 6 0 3 2 6 6 6 3 0 5-3 5-6 0-4-2-6-6-6z m23 2c2 1 5 3 5 6 0 4-3 6-7 6-3 0-8-2-8-6 0-3 3-5 5-6-3-1-6-3-6-7 0-4 5-6 9-6 4 0 8 1 8 6 0 4-3 6-6 7z m-7 6c0 3 2 4 5 4 2 0 5-1 5-4 0-2-3-4-5-5-2 1-5 2-5 5z m5-17c-3 0-6 2-6 4 0 4 3 5 6 6 2-1 6-2 6-5 0-4-3-5-6-5z m21 11c3 1 6 3 6 6 0 4-4 6-8 6-2 0-5 0-7-1l1-2c1 1 3 1 5 1 3 0 6-1 6-4 0-5-5-5-8-5l-1 0 0-2 2 0c3 0 7-1 7-5 0-4-3-5-6-5-2 0-4 0-6 1l-1-2c3-1 5-1 7-1 5 0 9 2 9 7 0 3-2 6-6 6z m-61 115c1 5-1 6-1 6 0 0-3-10-3-11 1 0 4 0 4 5z m-26-13c0-2 5-2 7-1 3 1 4 4 4 4 0 0-5 0-7-1-1 0-4-1-4-2z m15 29c-12 0-22-10-22-22 0-11 10-21 22-21 12 0 21 10 21 21 0 12-10 22-21 22z m7-31l3 5 1-2-3-4c2-1 4 0 5 2l1 0c0 0 0-1 0-1-2-3-6-5-9-4l-2-4-1 1 2 3c-2 2 0 9 0 10l-5 0c-1-6-6-8-10-8-3 0-6 1-6 4 1 5 8 5 8 5l5 1 3 13c0 0-5 1-8 0-2 0-3-1-3-1-1-2 6-4 6-4l-3-2c-2 1-6 3-7 4 0 2 2 6 6 6 3 0 13 0 13 0 0 0-4-14-4-15l5 0c1 1 4 15 4 15 0 0 3 0 3 0 0 0 4-1 3-9-1-7-7-9-7-9 0 0-2-4 0-6z"/>
<glyph unicode="&#65;" d="M200 347c0-20-16-36-36-36-19 0-35 16-35 36 0 19 16 35 35 35 20 0 36-16 36-35z m40-16c-8 1-16-2-22-8-5-5-9-13-9-20l0-34 193 0c3 0 6 2 7 5 1 3 0 6-2 8-21 17-70 44-167 49z m-58-56c0 9-6 17-15 19l-65 14c-3 1-7 0-9-2-3-2-4-5-4-8l0-28 93 0z m304-109l0 140c0 10-8 18-19 18-10 0-18-8-18-18l0-56-388 0 0 148c0 10-8 18-18 18-10 0-18-8-18-18l0-232c-14-7-24-21-24-38 0-23 19-42 42-42 24 0 42 19 42 42 0 17-9 32-24 39l0 33 388 0 0-33c-14-7-24-22-24-39 0-23 19-42 42-42 23 0 42 19 42 42 0 17-9 31-23 38z m-419-38c0-13-11-23-24-23-13 0-23 10-23 23 0 6 2 11 5 15l0-3c0-10 8-18 18-18 10 0 18 8 18 18l0 4c4-4 6-10 6-16z m400-23c-13 0-24 10-24 23 0 6 2 12 6 16l0-4c0-10 8-18 18-18 11 0 19 8 19 18l0 3c3-4 5-9 5-14 0-14-11-24-24-24z"/>
<glyph unicode="&#66;" d="M360 414l0 10c0 14-11 26-25 26l-35 0c3 6 5 12 5 19 0 24-19 43-43 43-24 0-43-19-43-43 0-7 2-14 5-19l-28 0c-14 0-25-12-25-26l0-10-59 0c-15 0-28-12-28-27l0-360c0-15 13-27 28-27l307 0c15 0 28 12 28 27l0 360c0 15-13 27-28 27z m-123 55c0 14 11 26 25 26 14 0 26-12 26-26 0-8-4-15-10-19l-32 0c-6 4-9 11-9 19z m-118-115c0 14 11 26 26 26l26 0c0-9 7-17 16-17l156 0c10 0 17 8 17 17l26 0c15 0 26-12 26-26l0-145-83 0c-7 0-13-4-16-11l-2-7-23 126c-1 9-8 14-16 14-1 0-1 0-1 0-8 0-15-5-17-14l-19-106-6 29c-1 7-7 12-13 13-7 2-14-2-18-8l-23-36-56 0z m27-320c-15 0-27 13-27 28l0 113 65 0c6 0 12 3 15 8l5 9 15-74c2-8 9-12 17-12 0 0 0 0 0 0 9 0 16 4 17 12l18 98 16-93c2-7 8-13 16-14 8-1 15 4 17 11l21 55 71 0 0-113c0-15-12-28-27-28z"/>
<glyph unicode="&#67;" d="M101 291l66 0c6 0 11 3 14 8l5 8 15-72c2-8 9-13 17-13 0 0 0 0 0 0 8 0 15 5 17 13l17 96 16-90c1-8 7-14 15-14 8-1 15 3 18 11l20 53 104 0c10 0 17 8 17 17 0 10-7 17-17 17l-116 0c-7 0-13-5-16-11l-2-7-22 124c-1 8-8 13-16 13-1 0-1 0-1 0-8 0-15-5-16-13l-19-103-6 27c-1 7-7 12-13 13-7 1-14-2-18-7l-22-36-57 0c-9 0-17-7-17-17 0-9 8-17 17-17z m366-142l19 0c15 0 25 12 25 26l0 309c0 14-10 25-25 25l-463 0c-15 0-23-11-23-25l0-309c0-14 8-26 23-26l21 0 0-14-14 0c-15 0-27-11-27-26l0-84c0-11 9-20 21-20l463 0c11 0 21 9 21 20l0 90c0 11-10 20-21 20l-20 0 0 14z m-418 274c0 19 14 34 33 34l343 0c18 0 33-15 33-34l0-193c0-18-15-33-33-33l-343 0c-19 0-33 15-33 33z m206-360c0-6-5-11-11-11l-183 0c-6 0-11 5-11 11l0 13c0 5 5 10 11 10l183 0c6 0 11-5 11-10l0-13z m105 0c0-6-5-11-11-11l-37 0c-6 0-10 5-10 11l0 13c0 5 4 10 10 10l37 0c6 0 11-5 11-10l0-13z m100 0c0-6-5-11-11-11l-37 0c-6 0-11 5-11 11l0 13c0 5 5 10 11 10l37 0c6 0 11-5 11-10z m-125 72l-159 0 0 14 159 0 0-14z"/>
<glyph unicode="&#68;" d="M487 490l-455 0c-18 0-32-14-32-32l0-327c0-18 14-32 32-32l455 0c18 0 32 14 32 32l0 327c0 18-14 32-32 32z m-8-336l-439 0 0 291 439 0z m-278-70l-60-61 237 0-59 61z m-94 128c11 0 21 10 21 21 0 3-1 4-1 6 27 22 74 61 96 77 3-2 7-4 12-4 4 0 7 1 10 3 14-12 38-32 55-46 0-2-1-3-1-4 0-12 10-21 21-21 12 0 21 9 21 21 0 2 0 4-1 6l55 49c3-1 6-2 9-2 12 0 22 9 22 21 0 11-10 21-22 21-11 0-21-10-21-21 0-3 1-6 2-8-15-14-39-35-54-49-3 3-7 4-11 4-5 0-9-2-13-5-14 12-36 31-52 45 1 2 1 5 1 7 0 12-9 21-21 21-12 0-21-9-21-21 0-2 0-5 1-7l-97-75c-3 2-7 4-11 4-12 0-21-10-21-22 0-11 9-21 21-21z"/>
<glyph unicode="&#69;" d="M475 475c-25 25-58 37-90 37-33 0-66-12-90-37l-129-129-129-129c-49-49-49-130 0-180 50-49 131-49 180 0l102 101 156 157c49 49 49 130 0 180z m-28-153l-128-129-126 126 129 128c17 17 39 26 63 26 23 0 46-9 62-26 35-34 35-90 0-125z"/>
<glyph unicode="&#70;" d="M251 508l-5 0c-37-68-200-62-200-98l0-155c0-214 199-241 202-242 4 1 203 27 203 242l0 155c0 36-163 30-200 98z m167-253c0-77-29-135-84-173-37-24-74-33-86-35-12 2-49 11-85 35-56 38-84 96-84 173l0 144c10 4 29 8 44 12 39 9 83 20 116 43l9 6 9-6c33-23 78-34 116-43 15-4 34-8 45-12z m-271 16c0 17 5 30 14 39 10 9 23 14 40 14 5 0 9-1 14-3 5-1 10-3 14-6 4-3 7-5 11-8 3-2 5-5 8-8 3 3 6 6 9 8 3 3 6 5 11 8 4 3 8 5 13 6 5 2 10 3 14 3 17 0 30-5 40-14 10-9 14-22 14-39 0-17-8-34-26-51l-70-68c-1-1-3-2-5-2-2 0-3 1-5 2l-70 68c-1 1-2 2-4 3-1 1-3 4-6 7-2 4-5 8-7 11-3 4-5 8-6 14-2 6-3 11-3 16z"/>
<glyph unicode="&#71;" d="M48 331c0-55 21-107 61-147l-34-34c-49 49-75 113-75 181 0 69 26 133 75 182l34-34c-40-40-61-92-61-148z m134 74l-34 34c-28-29-44-67-44-108 0-40 16-78 44-107l34 34c-19 19-30 46-30 73 0 28 11 54 30 74z m255 108l-34-34c39-40 61-92 61-147 0-56-22-108-61-148l34-33c48 48 75 112 75 181 0 68-27 132-75 181z m-74-74l-34-34c20-20 31-46 31-74 0-27-11-53-31-73l34-34c29 29 45 67 45 107 0 41-16 79-45 108z m-59-108c0-26-22-48-48-48-27 0-48 22-48 48 0 27 21 48 48 48 26 0 48-21 48-48z"/>
<glyph unicode="&#72;" d="M311 283l0-18c0-2-1-4-3-6-2-2-4-3-6-3l-64 0 0-64c0-2-1-5-3-6-2-2-4-3-6-3l-19 0c-2 0-4 1-6 3-2 1-3 4-3 6l0 64-64 0c-2 0-4 1-6 3-2 2-3 4-3 6l0 18c0 3 1 5 3 7 2 2 4 3 6 3l64 0 0 64c0 2 1 4 3 6 2 2 4 3 6 3l19 0c2 0 4-1 6-3 2-2 3-4 3-6l0-64 64 0c2 0 4-1 6-3 2-2 3-4 3-7z m36-9c0 36-12 66-37 91-25 25-55 37-91 37-35 0-65-12-90-37-25-25-38-55-38-91 0-35 13-65 38-90 25-25 55-38 90-38 36 0 66 13 91 38 25 25 37 55 37 90z m147-237c0-11-4-19-11-26-7-7-16-11-26-11-10 0-19 4-26 11l-98 98c-34-24-72-36-114-36-27 0-53 5-78 16-25 11-46 25-64 43-18 18-32 39-43 64-10 25-16 51-16 78 0 28 6 54 16 78 11 25 25 47 43 65 18 18 39 32 64 43 25 10 51 15 78 15 28 0 54-5 79-15 24-11 46-25 64-43 18-18 32-40 43-65 10-24 16-50 16-78 0-42-12-80-36-114l98-98c7-7 11-15 11-25z"/>
<glyph unicode="&#73;" d="M311 283l0-18c0-2-1-4-3-6-2-2-4-3-6-3l-165 0c-2 0-4 1-6 3-2 2-3 4-3 6l0 18c0 3 1 5 3 7 2 2 4 3 6 3l165 0c2 0 4-1 6-3 2-2 3-4 3-7z m36-9c0 36-12 66-37 91-25 25-55 37-91 37-35 0-65-12-90-37-25-25-38-55-38-91 0-35 13-65 38-90 25-25 55-38 90-38 36 0 66 13 91 38 25 25 37 55 37 90z m147-237c0-11-4-19-11-26-7-7-16-11-26-11-10 0-19 4-26 11l-98 98c-34-24-72-36-114-36-27 0-53 5-78 16-25 11-46 25-64 43-18 18-32 39-43 64-10 25-16 51-16 78 0 28 6 54 16 78 11 25 25 47 43 65 18 18 39 32 64 43 25 10 51 15 78 15 28 0 54-5 79-15 24-11 46-25 64-43 18-18 32-40 43-65 10-24 16-50 16-78 0-42-12-80-36-114l98-98c7-7 11-15 11-25z"/>
<glyph unicode="&#112;" d="M407 254c0-60-23-110-54-124l5-9c14 6 26 19 36 36 16 26 24 61 24 97 0 37-8 71-24 98-15 27-37 41-60 41-13 0-25-4-36-13 4-2 8-3 12-5 7 5 16 8 24 8 41 0 73-58 73-129z m68 154c-25 43-58 66-94 66-35 0-68-23-93-66-4-7-8-15-12-23 3-1 6-1 9-2 0 0 1 0 2 0 3-1 5-2 8-2 17 23 37 38 60 38 52 0 94-74 94-165 0-78-32-144-74-160l6-9c18 7 35 23 49 47 19 32 29 76 29 122 0 46-10 90-29 123-20 33-47 52-75 52-23 0-45-12-63-36 22 43 54 70 89 70 67 0 121-93 121-209 0-102-43-188-99-205l2-4 4-6c25 9 47 30 66 61 24 41 37 96 37 154 0 58-13 113-37 154z m-297-25c8 0 17-3 24-8 4 2 8 3 12 5-11 9-23 13-36 13-23 0-44-14-60-41-16-27-24-61-24-98 0-37 8-71 24-97 10-18 23-31 37-37l6 9c-32 13-57 64-57 125 0 71 33 129 74 129z m-168-129c0 116 54 209 121 209 35 0 67-27 89-70-18 23-40 36-63 36-28 0-55-19-75-52-19-33-29-77-29-123 0-46 10-90 29-122 14-24 32-41 51-48l6 9c-43 15-76 81-76 161 0 91 42 164 94 164 23 0 43-14 60-37 3 0 5 1 8 2 1 0 2 0 2 0 3 1 6 1 9 2-4 8-8 16-12 23-25 43-58 66-93 66-36 0-69-23-94-66-24-41-37-96-37-154 0-58 13-113 37-154 19-32 43-53 68-61l4 6 2 3c-57 16-101 103-101 206z m318-109l-38 62c-9-8-21-12-34-12-12 0-24 4-33 11l-37-62-7-11-59-95 274 0-59 96z m-197 112c0-3 0-6 0-9 0-38 17-73 44-96l39 63c-7 9-11 21-11 33 0 1 0 2 0 3 1 28 24 51 53 51 29 0 52-23 53-52 0-1 0-1 0-2 0-12-3-23-10-31l39-64c27 23 43 57 43 95 0 2 0 4 0 6-3 67-58 119-125 119-66 0-120-51-125-116z"/>
<glyph unicode="&#74;" d="M54 73l404 0-202 346z m226 154l47 0c9 0 16 0 20-2 5-1 9-4 11-8 3-4 5-9 5-15 0-5-1-10-3-13-3-4-6-7-9-9-3-2-6-3-10-4 3-1 5-2 7-3 1-1 3-3 5-5 2-3 3-5 4-6l13-27-32 0-15 28c-2 4-3 6-5 8-2 1-4 2-7 2l-2 0 0-38-29 0z m-19-92l-23 0 0 70-18-70-21 0-18 70 0-70-23 0 0 92 37 0 15-56 14 56 37 0z m67 56c2 1 3 2 4 3 2 2 2 4 2 6 0 3-1 5-3 6-2 2-5 3-10 3l-13 0 0-19 12 0c2 0 4 0 8 1z m179-126l-233 400c-5 9-11 13-18 13-7 0-13-4-18-13l-233-400c-10-17-2-31 18-31l466 0c20 0 28 14 18 31z m-6-17c-1-3-6-5-12-5l-466 0c-6 0-11 2-12 5-2 3-1 7 2 12l233 401c3 5 7 8 10 8 3 0 7-3 10-8l233-401c3-5 4-9 2-12z"/>
<glyph unicode="&#75;" d="M398 230c0 3 0 5 0 8-4 75-66 135-142 135-76 0-137-58-143-132 0-3 0-7 0-11 0-48 24-91 60-116l-60-97 286 0-62 96c37 26 61 69 61 117z m-120-53c-1 0-2-1-3-1-1 0-3-1-5-1 0 0 0 0 0-1-1 0-3 0-4 0-4-1-7-1-10-1-1 0-2 0-3 0l0 0c-7 0-13 2-19 4-6 2-11 6-15 9-13 11-21 27-21 44 0 1 0 2 0 3 2 30 27 55 58 55 31 0 57-25 57-56l0-2c0-18-9-35-22-46l0 0c-1 0-3-1-4-2l0 0c-2-1-4-3-6-4-1 0-2 0-3-1z m20-3c17 13 28 33 28 56 0 1 0 2 0 2-1 38-32 69-70 69-38 0-69-30-71-67 0-1 0-2 0-4 0-22 10-42 27-55l-31-50c-33 23-55 62-55 105 0 3 0 6 1 9 4 68 60 121 129 121 69 0 126-55 129-124 0-2 0-4 0-6 0-44-22-82-55-106z m-132 298l8 0 0-72c0-9 5-13 12-13 7 0 12 4 12 13l0 83c0 10-7 12-12 12l-20 0c-7 0-11-6-11-11 0-6 4-12 11-12z m80-85c7 0 11 5 11 12l0 37c0 8 4 14 12 14 8 0 12-6 12-14l0-37c0-7 5-12 12-12 6 0 11 5 11 12l0 37c0 8 4 14 12 14 8 0 12-6 12-14l0-37c0-7 5-12 12-12 6 0 11 5 11 12l0 44c0 19-13 27-29 27-10 0-17-5-23-9-5 7-15 9-21 9-9 0-17-3-20-9-2 4-6 8-12 8-7 0-12-6-12-12l0-58c0-7 5-12 12-12z m-246-157l79-45 0 91-37-21z m475 22l-42 24 0-91 79 45z"/>
<glyph unicode="&#76;" d="M330 186c0 0 49-48 49-48 15-16 11-43-4-58l-67-71c-27-26-62 10-36 35l43 43-42 42z m-151 0l-49-48c-15-16-11-43 3-58l68-71c26-26 61 10 36 35l-43 43 42 42-57 57m77 185c39 0 71 31 71 71 0 38-32 70-71 70-39 0-71-32-71-70 0-40 32-71 71-71z m76-156l2 48 58-55c5-4 11-7 17-7 7 0 14 3 18 8 10 11 9 26-1 36 0 0-67 73-77 81-17 16-44 25-86 25l-14 0c-42 0-68-9-86-25-10-8-77-81-77-81-10-10-11-25-1-36 5-5 11-8 18-8 6 0 12 3 17 7l59 55 1-48z"/>
<glyph unicode="&#77;" d="M458 419c0-30-24-55-55-55-30 0-55 25-55 55 0 30 25 55 55 55 31 0 55-25 55-55z m53-175l-36 79c-5 10-8 14-10 16-15 12-36 9-54 10-2 0-5 0-8 0-2 0-5 0-7 0-18-1-39 2-54-10-2-2-5-6-10-16l-36-79c-3-8 0-17 8-21l1 0c8-3 17 0 21 8l30 67 10 0c0-81-1-161 0-242-2-20 32-24 33-4 1 49 0 57 1 106 1 0 6 0 7 0 0-49 0-58 1-106 1-20 35-16 33 4 1 81 0 161 0 242l9 0 31-67c4-8 13-12 21-8l1 0c8 4 11 13 8 21z m-362-96c0 0 29-28 29-28 9-10 7-26-2-35l-40-42c-16-15-36 6-21 21l25 26-24 25z m-89 0l-29-28c-9-10-7-26 2-35l40-42c16-15 36 6 21 21l-25 26 25 25-34 33m45 109c23 0 42 19 42 42 0 23-19 42-42 42-23 0-41-19-41-42 0-23 18-42 41-42z m46-92l0 29 35-33c3-3 6-4 10-4 4 0 8 2 11 5 5 6 5 15-1 21 0 0-40 43-45 48-11 9-26 15-52 15l-8 0c-25 0-40-6-51-15-5-5-45-48-45-48-6-6-7-15-1-21 3-3 7-5 11-5 3 0 7 1 10 4l35 33 0-29z"/>
<glyph unicode="&#78;" d="M267 281c0-17-14-32-32-32-18 0-32 15-32 32 0 18 14 32 32 32 18 0 32-14 32-32z m205 138c0-19-15-34-34-34-19 0-34 15-34 34 0 18 15 33 34 33 19 0 34-15 34-33z m-91-49c20 8 43 5 64 5 18 0 40 3 55-10 11-9 12-25 12-39 0-29 0-59 0-88 0-7-3-17-11-17-9-2-16 8-16 17 0 28 0 57 0 86-2 0-7 0-9 0-1-83 0-165-1-247 3-20-32-24-34-4-1 49 0 99 0 148-2 0-6 0-8 0 0-43 0-86 0-129 0-9-1-19-4-28-12-9-33-4-32 12-1 83 0 165-1 247-2 0-5 0-7 0-1-27 0-54 0-82 0-9-5-23-16-20-7-1-11 7-11 13 0 35 0 69 0 104 0 13 6 27 19 32z m-84-190l-20 45c-3 6-5 9-6 10-9 7-21 5-32 5-1 0-3 0-4 0-2 0-3 0-4 0-11 0-23 2-32-5-1-1-3-4-6-10l-20-45c-3-5 0-11 4-13l0 0c5-2 11 0 13 5l18 39 5 0c0-47 0-94 0-141-1-11 19-14 20-2 0 28 0 33 0 61 0 0 4 0 4 0 0-28 0-33 0-61 1-12 21-9 20 2 0 47 0 94 0 141l5 0 18-39c2-5 8-7 13-5l0 0c4 2 6 8 4 13z m-210-56l17-17c5-5 4-15-1-20l-24-24c-9-9-21 3-12 12l15 15-15 14z m-52 0l-17-17c-5-5-4-15 1-20l24-24c9-9 21 3 12 12l-15 15 15 14-20 20m27 63c13 0 24 11 24 25 0 13-11 24-24 24-14 0-25-11-25-24 0-14 11-25 25-25z m26-54l0 17 20-19c2-1 4-2 6-2 3 0 5 1 6 3 4 3 4 9 0 12 0 0-23 25-26 28-7 5-16 8-30 8l-5 0c-14 0-24-3-30-8-3-3-26-28-26-28-4-4-4-9-1-12 2-2 4-3 7-3 2 0 4 1 6 2l20 19 0-17z"/>
<glyph unicode="&#79;" d="M350 485l1 0c1 1 2 3 2 5l-1 1c0 2-3 3-4 2l-5-2c-14 10-31 17-49 20-49 7-96-21-115-65 3-1 5-2 7-3 18 41 61 67 107 60 15-2 29-8 41-15l-160-63c-3 4-6 7-9 6-1 0-7-2-12-4-5-2-36-69-18-91 24-33 29-34 49-34 12-1 23 0 29 2 4 1 4 11 1 24l140 9c-22-24-55-38-90-33-9 2-18 4-26 8-1-3-2-5-3-7 9-4 18-7 28-8 40-6 79 11 102 41l9 1c2 0 3 2 3 4l0 0c0 3-2 4-4 4l-2 0c7 12 13 26 15 41 5 38-9 74-36 97z m28-96c-2-16-8-30-17-43l-149-10c-7 27-21 62-33 82l163 64c27-22 41-56 36-93z m-248-61c-1 2-3 2-5 1l-5-2c-1-1-2-3-1-5l15-18c1-1 4-2 5-1l5 3c2 1 2 3 1 4z m217-57l-124 0c-25 0-45-20-45-45l0-226 215 0 0 226c0 25-20 45-46 45z"/>
<glyph unicode="&#80;" d="M326 296c13 16 20 36 20 57l0 147c-46-4-83-43-83-91l0-71c8-21 8-45 0-67l0-8c3 1 5 1 7 1 23 4 42 16 56 32z m-199 43l61-36c0 0 0 0 0 0 14-2 27-8 39-16 5-3 9-6 13-10 2-2 4-5 6-7l7-4c1 2 2 4 3 7 8 21 8 44 0 64-7 19-20 35-39 46l-127 73c-9-20-11-41-5-62 6-24 21-43 42-55z m112-84l7 3c-1 2-3 4-4 6-14 17-34 29-56 32-5 1-9 2-14 2-16 0-32-5-46-13l-126-73c17-24 45-39 74-39 16 0 32 5 46 12l61 36c15 17 35 30 58 34z m-53-39c-13-16-20-36-20-57l0-147c46 4 83 43 83 91l0 71c-8 21-8 45 0 67l0 8c-3-1-5-1-7-1-23-4-42-15-56-32z m199-43l-61 36 0 0c-5 1-10 2-14 3-4 2-8 3-12 5-9 5-18 11-26 18-2 2-3 3-4 5-1 1-2 1-2 2 0 0 0 0 0 0l-7 4c-1-2-2-4-3-6-7-18-8-37-3-56 1-3 2-6 3-9 7-19 21-35 39-46l127-73c9 19 11 41 5 62-6 24-21 43-42 55z m53 166c-16 0-32-5-46-13l-61-35c-15-17-35-30-58-34l-3-1-4-3c1-2 3-3 4-5 14-18 34-29 56-33l0 0c5 0 10-1 14-1 16 0 32 4 45 12l76 44 51 29c-17 25-45 40-74 40z"/>
<glyph unicode="&#82;" d="M158 289c0-23-18-42-41-42-23 0-42 19-42 42 0 23 19 42 42 42 23 0 41-19 41-42z m267 179c0-24-19-44-44-44-24 0-43 20-43 44 0 24 19 44 43 44 25 0 44-20 44-44z m-118-63c27 10 56 5 83 7 24-1 52 3 72-14 15-12 16-33 16-50-1-39 0-77 0-116 0-9-3-22-14-21-13-4-21 10-21 21 0 38 0 75 0 112-3 0-9 0-12 0-1-107 0-214-1-322 3-25-42-31-44-4-1 64 0 128-1 193-2 0-8 0-10 0 0-56 0-112 0-169 0-12-1-24-6-36-14-12-42-6-41 16-1 107 0 214-1 322-2 0-7 0-10 0 0-36 0-71 0-107 0-11-6-30-21-26-9-1-14 9-13 17-1 45-1 90 0 135-1 17 7 35 24 42z m-109-249l-27 60c-4 8-6 11-8 12-11 9-27 7-40 8-2 0-4 0-6 0-2 0-4 0-6 0-14-1-30 1-41-8-1-1-4-4-8-12l-27-60c-2-6 0-13 6-16l1 0c6-3 13 0 16 6l23 51 7 0c0-61 0-123 0-184-2-15 24-18 25-3 1 37 0 44 1 80 0 0 5 0 5 0 1-36 0-43 1-80 1-15 27-12 25 3 0 61 0 123 0 184l7 0 23-51c3-6 10-9 17-6l0 0c6 3 9 10 6 16z"/>
<glyph unicode="&#83;" d="M376 388c15 0 28 13 28 28 0 16-13 28-28 28-102 0-154-93-200-175-4-7-7-13-11-20-18-32-36-62-57-85-25-27-50-40-80-40-15 0-28-13-28-28 0-16 13-28 28-28 46 0 86 19 122 59 29 32 52 74 75 114l3 6c41 73 80 141 148 141z m-345-178c16 0 28 13 28 29l0 57c6 0 40-1 60 8 6 3 10 6 15 10 22 18 30 49 21 75-7 26-33 45-59 48l-67 0c-13 0-22-8-24-14-3-8-3-18-1-25 3-7 12-14 25-14l60 0c6 0 12-7 13-12 1-4 1-10-2-14-3-5-8-8-13-8l-65 0c-9 0-20-10-20-19 0 0 0-3 0-7 0-1 0-1 0-2l0-83c0-16 13-29 29-29z m477 77c-5 7-12 13-20 14-12 2-23-2-30-12l-53-122-1-1 0 1-54 122c-6 10-18 14-29 12-8-1-16-7-21-14-3-7-5-16-2-24l79-173c4-9 17-17 27-17 10 0 24 8 27 17l79 173c3 8 2 17-2 24z"/>
<glyph unicode="&#84;" d="M211 304l2 5c39 69 76 133 139 133 14 0 26 12 26 26 0 15-12 26-26 26-96 0-145-87-187-164-4-6-7-12-11-18-17-31-33-58-53-80-23-26-47-38-75-38-14 0-26-12-26-26 0-15 12-26 26-26 43 0 81 18 114 55 28 30 49 69 71 107z m-182-29c15 0 26 12 26 27l0 54c6 0 38-1 56 8 6 2 10 5 15 8 20 17 27 46 19 71-7 24-31 41-55 44l-63 0c-12 0-20-7-23-12-2-8-2-18 0-24 3-7 11-13 23-13l56 0c6 0 11-6 12-11 2-5 2-10-1-13-3-5-8-8-13-8l-61 0c-8 0-18-9-18-18 0 0 0-3 0-7 0 0 0-1 0-1l0-78c0-15 12-27 27-27z m299 74c-6 9-17 13-28 11-7-1-14-6-19-13-3-7-4-15-2-23l74-161c4-9 16-16 25-16 10 0 22 7 26 16l74 161c2 8 1 16-2 23-5 7-12 12-19 13-11 2-22-2-28-11l-50-114 0-1-1 1z m-13-239l-26 0c-5 0-9-3-10-5-1-3-1-8 0-10 1-3 5-6 10-6l23 0c3 0 5-3 6-4 0-2 0-5-1-6-1-2-3-4-5-4l-26 0c-4 0-8-3-8-7 0 0 0-1 0-3 0 0 0 0 0-1l0-32c0-7 5-12 12-12 6 0 11 5 11 12l0 22c2 0 16 0 23 4 3 1 4 2 6 3 9 8 12 20 9 30-3 10-14 18-24 19z m163-2c-16 5-33 0-45-12-12-12-17-30-11-46 5-17 22-31 39-32 18-2 35 7 44 22 9 13 9 35 0 48-6 10-16 17-27 20z m8-55c-5-7-13-12-22-12-7 1-14 5-18 12-4 6-4 16 0 22 5 9 14 13 23 11 6-1 12-4 15-9 5-7 5-17 2-24z m-94 5c2 0 3 1 5 1 3 1 6 3 8 5 5 5 7 11 7 18 0 9-3 15-9 21-5 4-13 6-22 6l-20 0c-3 0-6 0-8-2-2-1-3-4-4-7 0-1 0-3 0-5l0-61c0-4 0-7 1-9 1-1 2-2 4-3 1-1 3-2 5-2 2 0 3 1 5 2 2 0 3 2 4 3 1 2 1 5 1 9l0 23 25-31c1-2 2-3 3-3 2-2 4-3 6-3 3 0 5 1 7 2 2 2 3 5 3 8 0 2-1 5-4 9z m-10 13l-13 0 0 21 12 0c3 0 6-1 8-3 2-2 3-5 3-8 0-2-1-5-2-7-2-2-5-3-8-3z"/>
<glyph unicode="&#85;" d="M472 269l-105 0c-21 0-38-17-38-39l0-189 181 0 0 189c0 22-17 39-38 39z m-329 0l-37 0 0-100c0-5-3-8-8-8l-23 0c-5 0-8 3-8 8l0 100-28 0c-22 0-39-17-39-39l0-189 181 0 0 189c0 22-17 39-38 39z m64 102l-28 0c0 4 1 7 1 11 0 49-40 89-89 89-50 0-89-40-89-89 0-41 27-75 65-86l0 41c0 16 13 29 29 29l111 0c4 0 8-4 8-9l0-12c0-5-4-9-8-9l-83 0c-10 0-18-7-18-17l0-25c24 5 45 18 58 37l43 0c7 0 14 6 14 14l0 13c-1 7-7 13-14 13z m21-231l22 0 0 22c0 1 1 3 3 3l3 0c2 0 3-2 3-3l0-22 22 0c1 0 3-1 3-3l0-3c0-1-2-3-3-3l-22 0 0-21c0-2-1-3-3-3l-3 0c-2 0-3 1-3 3l0 21-22 0c-2 0-3 2-3 3l0 3c0 2 1 3 3 3z m254 308l0 1c2 0 2 2 2 3l0 1c-1 2-3 3-4 2l-4-2c-10 8-22 13-35 16-42 8-82-15-98-52 2-1 4-2 6-3 14 35 52 56 90 49 11-2 21-7 30-12l-130-51c-3 3-5 6-7 5-1 0-6-2-10-3-4-2-29-56-15-75 20-26 24-26 40-27 10 0 19 0 24 2 3 1 3 9 0 19l114 8c-18-20-44-31-72-27-8 1-15 3-22 6 0-2-1-4-2-6 7-3 15-5 23-6 32-5 63 9 82 33l7 1c2 0 3 1 3 3l0 1c0 1-2 3-3 3l-2-1c7 12 11 24 12 38 3 29-9 56-29 74z m23-73c-1-15-6-28-14-39l-121-8c-6 21-17 50-27 66l133 52c20-17 32-43 29-71z m-201-54c-1 2-3 2-4 1l-4-2c-2-1-2-2-1-4l12-14c1-2 3-2 4-1l4 2c1 1 2 2 1 4z"/>
<glyph unicode="&#87;" d="M0 260l512 0 0-16-512 0z m217-213c-27 0-42 22-43 44 0 0-10 55-20 109l0 3c-1 5-4 11-7 15-5 4-12 7-20 7l-65 0c-17 0-32 14-32 31 0 18 14 32 32 32l65 0c44 0 81-30 89-74l1-4c0 0 0 0 0-1l28 212c0 25 20 44 45 44 24 0 43-18 43-44 3-15 12-62 20-109l0-3c1-5 4-11 7-15 5-4 12-7 20-7l65 0c18 0 32-14 32-31 0-18-14-32-32-32l-65 0c-44 0-77 30-86 74l-1 4c0 0 0 0 0 1l-32-212c-1-22-16-44-44-44z"/>
<glyph unicode="&#88;" d="M256 512c-101 0-193-60-234-152-52-118-10-253 98-320l39 88c6 13 18 21 32 22l85 4c6 1 9 2 12 2-1 3-3 6-7 11l-54 65c-1 2-2 3-3 5l-50 62c-24 29-31 60-19 87 12 27 40 43 77 45l63 3 30 68c-23 6-46 10-69 10z m-69-502c23-6 46-10 69-10 101 0 193 60 234 153 52 117 10 252-98 319l-39-88c-6-13-18-21-32-22l-85-4c-5-1-9-2-12-2 1-3 3-6 7-11l54-65c1-2 2-3 3-5l50-62c24-29 31-60 19-87-12-27-40-43-78-45l-62-3z"/>
<glyph unicode="&#89;" d="M410 153c-1 1-3 3-5 3-1 1-2 1-3 1-1 1-2 1-3 2-2 1-4 1-6 1-4 0-7 2-11 3-2 0-3 0-4 0-1 1-3 2-5 3 0 0 0 0-1 0 0 0 0 0-1 0 0 1-1 1-1 1-2 0-3 1-4 2-2 2-4 3-6 5-1 2-3 3-5 5 0 1-2 4-2 5 1 2 4 0 5 0 5-2 9-6 14-7 2 0 5 0 6 2 1 3-5 4-7 6-1 1-2 1-5 2-2 0-12 3-6 6 2 1 4 0 7 0 3 0 5-1 7-2 2-2 4-3 7-3 3 1 8 4 5 7-1 1-2 2-2 3-1 0-2 0-3 0 0 1-1 1-2 1 0 0-1 0-1 0-1 1-2 1-3 1-3 1-5 1-7 1-3 1-6 1-9 1-7 0-16 1-22 7-2 2-3 5-4 7-2 2-3 4-3 6 1 2 2 3 2 5 0 3-1 6 0 8 0 0 0 0 1 0 0 1 0 1 0 2 0 0 0 0 0 0 0 0 0 0 0 0 0 0 1 0 1 0 0 1 0 1 0 1 0 0 1 1 1 1 0 0 0 0 0 1 1 0 1 0 2 1 0 0 0 0 0 1 0 0 1 0 1 0 0 0 0 0 0 0 1 1 1 1 2 1 0 0 0 0 0 0 1 1 1 1 2 1 0 0 0 0 0 0 3 0 5 0 8 0 2 0 6 0 8 0 2-2 5-3 8-4 0-1 0-1 0-1 1 0 1 0 1 0 0-1 1-1 1-2 0 0 0 0 1 0 0 0 0-1 1-1 1-1 1-1 2-2 0 0 0 0 0-1 1 0 1 0 1 0 0 0 0 0 1-1 0 0 0 0 0 0 0 0 0 0 1 0 0-1 5-2 7-2 1 0 1 1 2 2 0 0 0 0 0 1 1 0 1 0 1 0 0 1 0 2-1 3 0 0 0 0 0 0 0 0 0 1 0 1 0 0-1 0-1 0 0 0 0 1 0 1-1 1-2 2-4 3 0 0 0 1 0 1 0 0 0 0 0 0 0 0 0 0 0 1-2 1-3 3-6 4-1 0-2 2-3 2-1 0-2 0-2 1-2 1-5 4-6 7 0 3 3 2 3 5 1 1 1 1 2 1 2 3 4 5 6 7 1 1 1 1 2 2 0 0 0 0 0 0 0 0 0 1 0 1 1 0 1 0 1 1 1 0 0 0 1 1 0 2 0 3-1 3 0 0 0 0 0 0 0 0 0 0 0 0 0 0 0 0 0 1-5-1-8-3-10-5-1 0-1 0-1 0 0 0 0 0 0 0 0 0 0 0-1 0 0 0 0 0 0 0 0 0 0 0 0 0l-1-1c0 0 0 0 0 0 0 0 0 0-1 0 0 0 0 0 0 0 0-1-1-1-1-2 0 0 0 0-1 0 0-1-1-2-2-3 0 0 0 0-1 0 0 0 0 0 0 0-1-1-2 0-3 0-2 2-4 3-3 6 1 2 2 3 2 5 1 1 1 3 1 5 1 1 5 12 3 14-1 0-1 0-1 0 0 0 0 0 0 0 0 1-1 1-1 1 0 0 0 0 0 0 0 0 0 0-1 0 0 1 0 1 0 1-1 1-3 1-5 1-1-1-1-1-2-2-1-1-2-3-3-4 0-2 0-4 0-6-1-2-2-4-4-6-1-3-1-7-2-10-1-4-4-6-7-9-1-2-2-3-4-4-5-1-10-2-16-1-11 2-20 10-26 20-4 5-5 9-7 16-2 7-6 13-6 21 0 5 0 35 0 35l-31 0c0 0 0-30-1-35 0-8-4-14-5-21-2-7-4-11-7-16-6-10-16-18-27-20-5-1-10 0-15 1-2 1-3 2-5 4-2 3-5 5-6 9-1 3-1 7-3 10-1 2-2 4-3 6 0 2 0 4-1 6 0 1-1 3-2 4-1 1-2 1-2 2-2 0-4 0-5-1-1 0-1 0-1-1 0 0 0 0 0 0 0 0 0 0 0 0-1 0-1 0-1-1 0 0 0 0 0 0 0 0-1 0-1 0-2-2 2-13 3-14 0-2 0-4 0-5 1-2 1-3 2-5 2-3 0-4-2-6-1 0-2-1-4 0 0 0 0 0 0 0 0 0 0 0 0 0-1 1-2 2-3 3 0 0 0 0 0 0-1 1-1 1-1 2 0 0-1 0-1 0 0 0 0 0 0 0 0 0 0 0-1 0l0 1c0 0-1 0-1 0 0 0 0 0 0 0 0 0 0 0 0 0 0 0 0 0 0 0-1 0-1 0-1 0-3 2-6 4-10 5 0-1 0-1 0-1 0 0 0 0 0 0 0 0 0 0 0 0-1 0-1-1-1-3 0-1 0-1 0-1 1-1 1-1 1-1 0 0 0-1 0-1 1 0 1 0 1 0 0-1 1-1 1-2 3-2 5-4 7-7 0 0 1 0 2-1 0-3 3-2 2-5 0-3-3-6-5-7-1-1-1-1-2-1-1 0-3-2-4-2-2-1-3-3-5-4 0-1 0-1 0-1 0 0 0 0-1 0 0 0 0-1 0-1-1-1-2-2-4-3 0 0 0-1 0-1 0 0 0 0 0 0 0 0 0-1 0-1 0 0-1 0-1 0 0-1 0-2 0-3 0 0 0 0 0 0 0 0 0-1 1-1 0-1 1-2 2-2 2 0 6 1 7 2 0 0 0 0 0 0 1 0 1 0 1 0 0 1 0 1 1 1 0 0 0 0 0 0 0 1 1 1 1 1 1 1 1 1 2 2 0 0 1 1 1 1 0 0 0 0 1 0 0 1 0 1 1 2 0 0 0 0 0 0 1 0 1 0 1 1 3 1 5 2 8 4 2 0 5 0 8 0 2 0 5 0 8 0 0 0 0 0 0 0 0 0 1 0 2-1 0 0 0 0 0 0 1 0 1 0 1-1 1 0 1 0 1 0 0 0 0 0 1 0 0-1 0-1 0-1 0-1 1-1 2-1 0-1 0-1 0-1 0 0 0-1 1-1 0 0 0 0 0-1 0 0 0 0 0 0 0 0 0 0 0 0 1 0 1 0 1 0 0-1 0-1 0-2 0 0 0 0 0 0 1-2 1-5 1-8 0-2 1-3 1-5 1-2-1-4-2-6-2-2-3-5-5-7-5-6-14-7-22-7-3 0-5 0-8-1-2 0-5 0-7-1-1 0-2 0-3-1-1 0-1 0-2 0 0 0-1 0-1-1-2 0-2 0-3 0-1-1-1-2-2-3-4-3 2-6 5-7 3 0 5 1 7 3 2 1 4 2 7 2 2 0 5 1 7 0 6-3-4-6-7-6-2-1-3-1-5-2-2-2-8-3-6-6 1-2 3-2 5-2 6 1 10 5 14 7 2 0 5 2 6 0 0-1-2-4-3-5-1-2-3-3-5-5-2-2-3-3-6-5-1-1-1-2-3-2 0 0-1 0-2-1 0 0 0 0-1 0 0 0 0 0-1 0-1-1-3-2-4-3-2 0-3 0-4 0-4-1-7-3-12-3-2 0-4 0-6-1 0-1-1-1-2-2-1 0-2 0-3-1-2 0-5-2-5-3 0-2 2-4 3-4 4-2 11 1 14 3 5 2 10 4 15 2 0-1-2-2-3-3-4-3-8-6-11-9-1 0-4-2-4-4 0-1 5-3 7-3 1 1 3 3 4 4 1 0 2 2 3 2 6 4 14 6 20 10 5 3 4 8 9 12 2 2 4 2 5-2 0-3-1-7-1-11 0 0 0-1 0-1 0-1 1-1 1-1 1-2 1-5 1-7 2-1 5 1 6 3 1 1 0 3 0 5 0 4 1 8 1 12 0 3 0 5 0 8 1 3 3 6 4 9 2 4 3 7 5 10 1 3 3 6 4 8 2 2 3 3 4 5 3 3 5 6 5 9 1 4 3 7 4 10 1 2 1 2 2 4 1 1 1 2 2 3 1 0 1 0 2 1 1 1 2 2 4 4 1 2 3 3 5 4 1 2 2 4 4 5 2 1 3 2 5 3 2 2 4 3 6 5 3 2 6 3 9 5 3 2 7 4 10 5 3 2 6 3 9 4 2-1 5-2 8-4 3-1 7-3 10-5 3-2 6-3 9-5 2-2 4-3 6-5 2-1 3-2 5-3 2-1 3-3 5-5 1-1 3-2 5-4 1-2 2-3 3-4 1-1 1-1 2-1 1-1 1-3 2-3 1-2 1-2 2-4 1-3 3-6 4-10 0-3 3-6 5-9 1-2 2-3 4-5 1-2 3-5 4-8 2-3 3-6 5-10 1-3 3-6 4-9 0-3 0-5 0-8 0-4 1-8 1-12 0-2-1-4 0-5 1-2 4-4 6-3 0 2 0 5 1 7 0 0 1 0 1 1 0 0 0 1 0 1 0 4-1 8 0 11 0 4 2 4 4 2 5-4 4-9 9-12 6-4 14-6 20-10 1-1 2-2 3-2 2-1 3-3 4-4 2 0 7 2 7 3 0 2-3 4-4 4-3 3-7 6-11 9-1 1-2 2-3 3 5 3 10 0 15-2 4-2 10-5 14-3 1 0 3 2 3 4z m-168 228c0 5 3 10 8 12l0 11-10 0 0-10c-3-3-5-8-5-13 0-6 2-10 5-14l0-9 10 0 0 10c-5 2-8 7-8 13z m30 13l0 10-10 0 0-11c5-2 8-7 8-12 0-6-3-11-8-13l0-10 10 0 0 9c3 4 5 8 5 14 0 5-2 10-5 13z m-11-7c-1 1-3 2-5 2-2 0-4-1-5-2-2-2-3-4-3-6 0-3 1-5 3-6 1-2 3-2 5-2 2 0 4 0 5 2 2 1 3 3 3 6 0 2-1 4-3 6z m40 3c4 0 18-3 48-25 53-39 93-87 119-142 18-37 24-68 27-85-2-1-3-3-5-4-10-8-22-12-35-12l-155 0-2 255 0 1 0 2c0 3 0 8 1 9 0 0 1 1 2 1m0 15c-23 0-19-28-19-28l2-270 172 0c16 0 31 5 43 14 5 4 9 8 13 12-3 28-25 149-154 244-28 21-46 28-57 28z m-90-15c1 0 2-1 2-1 1-1 1-6 1-10l0-1 0-1-2-255-156 0c-12 0-24 4-34 12-2 1-3 3-5 4 2 17 9 48 27 85 26 55 66 103 119 142 30 22 44 25 48 25m0 15c-11 0-29-7-57-28-129-95-151-216-154-244 4-4 8-8 13-12 12-9 27-14 43-14l172 0 2 270c0 0 4 28-19 28z"/>
<glyph unicode="&#48;" d="M330 375c0 1 0 2 0 3 0 0 0 0 0 0 0 1 0 2 0 2 0 1 0 2-1 2 0 1 0 2 0 3 0 0 0 1 0 1-1 2-1 4-2 6 0 0 0 1 0 1 0 1-1 3-1 4 0 0 0 0-1 1 0 1-1 3-1 4-1 0-1 1-1 1-1 2-1 3-2 4 0 1-1 1-1 1-1 3-3 5-5 8 0 0 0 0 0 1-1 0-2 1-3 2 0 0 0 1-1 1 0 1 0 1-1 1 0 1-1 1-1 2-1 1-3 2-4 3-1 1-1 1-2 1-1 1-2 2-4 3 0 1-1 1-1 1 0 0-1 0-1 0 0 1-1 1-1 1-1 1-1 1-1 1-1 0-2 1-2 1-1 0-1 1-2 1 0 0 0 0 0 0l0 65c0 6-5 11-11 11l-47 0c-6 0-11-5-11-11l0-65c-2-1-4-2-6-3-1 0-2-1-2-1-2-1-3-2-5-3 0-1-1-1-1-2-1-1-3-2-4-2 0-1 0-1-1-2-7-6-13-15-16-24 0-1-1-1-1-2-1-2-1-4-2-6 0-1 0-2-1-3 0-1 0-3 0-4 0-1-1-2-1-3 0-1 0-2 0-3l0-1c0-1 0-2 0-3l0-19 0-95 0-190c0-38 30-68 68-68l11 0c38 0 69 30 69 68l0 187 0 98 0 19c0 1 0 1 0 2z m-8-306c0-7-1-15-4-21 0-1 0-2-1-3-5-12-15-23-27-30-1 0-3-1-5-2-7-3-15-5-24-5l-11 0c-4 0-8 1-12 1-1 1-2 1-3 1-3 1-6 2-9 3 0 0-1 1-2 1-5 2-9 5-13 8 0 1-1 1-2 2-3 3-7 7-9 11-1 1-1 2-2 3-3 5-5 10-7 16-1 5-2 10-2 15l0 189 1 96 132 0 0-98 0-1z m-42 2c5 0 8-3 8-7 0-4-3-7-8-7l-48 0c-5 0-7 3-7 7 0 4 2 7 7 7l17 0 0 26-17 0c-4 0-7 3-7 7 0 4 3 7 7 7l48 0c5 0 8-3 8-7 0-4-3-7-8-7l-18 0 0-26z m-47 49c-5 0-7 4-7 7l0 22c0 4 2 7 6 7 4 0 7-3 7-7l0-15 11 0 0 14c0 4 2 7 6 7 4 0 7-3 7-7l0-14 11 0 0 15c0 5 3 7 7 7 4 0 6-2 6-7l0-22c0-3-2-7-7-7z m0 43c-5 0-8 3-8 7 0 4 3 7 8 7l41 0 0 15c0 4 3 7 7 7 4 0 6-3 6-7l0-22c0-4-2-7-7-7z m47 53c5 0 8-3 8-7 0-4-3-7-8-7l-47 0c-5 0-8 3-8 7 0 4 3 7 8 7z m-23 68c19-1 32-13 32-31 0-18-13-30-32-30-20 0-33 12-33 30 0 19 13 31 33 31z m0-46c9 0 19 4 19 15 0 11-10 15-19 15-10 0-20-4-20-15 0-11 10-15 20-15z m-25 81c-4 3-7 4-7 8 0 5 4 8 7 8 2 0 4-1 6-3l16-12 21 15c3 2 4 3 6 3 4 0 7-3 7-7 0-3-1-5-4-7l-18-13 18-13c3-2 4-4 4-7 0-4-3-6-7-6-3 0-4 0-7 3l-20 15-16-13c-2-1-4-2-6-2-3 0-7 2-7 7 0 4 3 6 7 8l11 8z"/>
<glyph unicode="&#49;" d="M170 219c-1-2-1-6 0-9 2-2 4-5 7-5l33 0c5 0 8 1 11 4 1 3 3 6 2 10l-8 16-25 54c-1 3-6 7-10 7-4 0-9-4-11-7l-23-50-9-19c-1-3 0-7 1-10 2-3 5-5 9-6 4 0 9 1 12 5l12 28 9 21c3-7 6-15 10-22 1-4 3-7 4-11 0 0-18 0-18 0-3 0-5-3-6-6z m87 5c-4 0-8 1-12 2-3 1-6 3-9 3-6 0-10-5-10-11 0-11 17-15 32-15 19 0 33 12 33 30l0 1c0 20-17 25-28 28-8 2-13 4-13 8 0 4 4 6 8 6 4 0 7-1 10-2 2-1 4-2 7-2 6 0 10 5 10 11 0 11-19 14-26 14-19 0-32-12-32-30 0-18 15-22 27-25 8-3 13-4 14-8 0-1 0-1 0-1 0-6-4-9-11-9z m47 72c-7 0-12-4-12-10 0-2 1-3 1-5l19-47 9-22c1-5 4-9 10-9 7 0 9 5 11 9l9 23 18 46c1 1 1 3 1 5 0 6-5 10-11 10-4 0-8-2-10-7l0 0c0 0-15-40-18-47-2 7-17 47-17 47l0 0c-3 5-6 7-10 7z m-136 128c7-6 71-71 88-88l0 47 1 0c79-1 143-65 143-144 0-7-1-14-2-21l64 17 6 2 17-66c7 22 10 45 10 68 0 133-107 240-239 240l0 33c-17-17-82-82-88-88z m216-61c3-2 7-2 11-2 4 0 10 1 10 5 0 5-6 6-9 6-2 0-3-1-5-1l0 9c2-1 4 0 5 0 3 0 8 1 8 5 0 4-4 5-8 5-4 0-8-1-11-2l0 9c4 1 8 2 13 2 8 0 18-3 18-13 0-5-4-8-9-10l0 0c6-1 9-4 9-10 0-11-11-14-19-14-6 0-10 0-14 1z m-364-260c23-6 111-30 120-32 2 9 26 97 32 120l-40-23c-14 23-20 49-19 74 0 49 26 96 71 122 7 3 13 6 20 9l-52 51 4 4 45 44c-22-5-44-13-65-25-71-41-113-114-119-190-3-46 7-94 32-137l0 0z m61 228l10 0 0-46-12 0 0 34-8-6-6 8z m379-108c-9-2-97-26-120-32l40-23c-39-69-127-93-196-53-6 4-12 8-17 12l-19-70-66 18c16-16 34-31 54-43 115-66 261-27 327 88l0 0 29-17c-6 23-30 112-32 120z m-145-191l-33 0 0 9c9 8 20 16 20 23 0 4-3 5-7 5-4 0-9-1-12-3l0 10c6 2 11 2 13 2 10 0 18-4 18-13 0-9-10-18-14-22l-4-2 18 0 0-9z"/>
<glyph unicode="&#81;" d="M314 332c0 2-1 3-3 3l-25 1c-2 0-4-2-4-4 0-2 1-3 3-3 1 0 1 0 1 0l25 1c2 0 3 1 3 2z m160 0c0 3-2 4-4 4l-25-1c-2 0-3-1-3-3 0-1 1-2 3-2l25-1c0 0 1 0 1 0 2 0 3 1 3 3z m-134-52c-1 1-2 1-3 0l-16-20c-1-2-1-4 1-5 1-2 3-1 5 0 0 0 0 0 0 0l14 22c1 1 1 3-1 3z m76 104c1-1 2 0 3 1l16 20c0 0 0 0 0 0 1 2 1 4-1 5-1 1-4 1-5-1l-14-21c-1-1 0-3 1-4z m-90-89c-1 1-2 1-3 0l-22-14c-1-1-2-3-1-5 1-2 4-2 5-1 1 0 1 0 1 0l20 16c1 1 1 3 0 4z m104 75c1-1 2-1 3-1l22 14c0 1 0 1 0 1 2 1 2 3 1 5-2 2-4 2-6 1l-20-17c-1 0-1-2 0-3z m-113-58c0 1-2 2-3 2l-25-7c-2-1-3-3-2-5 0-2 2-3 5-2 0 0 0 0 0 0l24 9c1 0 2 2 1 3z m122 40c0-1 2-2 3-2l25 7c0 0 0 0 0 1 2 0 3 2 2 4 0 2-3 3-4 3l-25-10c-1 0-1-1-1-3z m-81-81c-1 1-3 0-3-1l-9-24c-1-2 0-4 2-5 2-1 4 0 5 2 0 0 0 0 0 1l7 24c0 2-1 3-2 3z m40 122c1 0 2 1 3 2l9 24c0 0 0 0 0 0 1 2-1 4-3 5-1 0-3-1-4-3l-7-24c0-2 1-3 2-4z m21-113c-1 1-2 1-3 0-2 0-2-2-1-3l14-22c0 0 0 0 0 0 1-1 4-2 5 0 2 1 2 3 1 5z m-98 125l16-20c1-1 2-2 3-1 1 1 2 3 1 4l-14 21c-1 2-4 2-5 1-2-1-3-3-2-5 1 0 1 0 1 0z m134-124l-22 14c-1 1-2 1-3 0-1-1-1-3 0-4l20-16c0 0 1 0 1 0 1-1 4-1 5 1 1 2 0 4-1 5z m-154 103c0 0 0 0 0-1l22-14c1 0 2 0 3 1 1 1 1 3 0 3l-20 17c-2 1-4 1-6-1-1-2-1-4 1-5z m166-77l-25 7c-1 0-3-1-3-2-1-1 0-3 1-3l24-9c0 0 1 0 1 0 2-1 3 0 4 2 1 2 0 4-2 5z m-178 51c0-1 0-1 0-1l25-7c1 0 2 1 3 2 0 2 0 3-2 3l-24 9c-2 1-4 0-4-2-1-2 0-4 2-4z m112-88c0 1-2 2-3 1-1 0-2-1-2-3l7-24c0 0 0-1 0-1 1-2 3-3 5-2 2 1 3 3 2 5z m-55 149l9-24c1-1 2-2 3-2 1 1 2 2 2 3l-7 25c-1 2-3 3-5 3-2-1-3-3-2-5 0 0 0 0 0 0z m28 5l1-25c1-2 2-3 3-3 1 1 2 2 3 3l1 25c0 2-2 4-4 4-2 0-4-1-4-3 0 0 0 0 0-1z m7-158c0 1-1 2-3 2-1 0-2-1-2-2l-2-26c0 0 0 0 0 0 0-2 2-4 4-4 2 0 4 2 4 4z m53 66c0-30-25-55-56-55-31 0-56 25-56 55 0 31 25 56 56 56 31 0 56-25 56-56z m-297-64c-44 44-44 116 0 161-51-5-89-52-84-103 6-52 52-90 104-84 5 0 9 1 14 2-13 6-24 14-34 24z m248 191l-258 0c-70 0-127-57-127-127 0-70 57-126 127-126l258 0c70 0 127 56 127 126 0 70-57 127-127 127z m0-238l-130 0 0 223 130 0c62 0 112-50 112-112 0-61-50-111-112-111z m-258 0c-1 0-1-1-1-1-62 1-111 51-111 112 0 62 50 112 112 112 0 0 0 0 0 0l112 0 0-223z m7-105l0-49c0-4-1-7-3-9-2-3-5-4-8-4-4 0-7 1-9 4-2 2-3 5-3 9l0 78c0 3 1 6 3 8 2 2 5 4 8 4 4 0 7-2 10-6l44-55 0 48c0 3 1 6 3 9 2 2 5 4 8 4 4 0 6-2 8-4 2-3 4-6 4-9l0-77c0-4-1-7-3-9-3-3-5-4-8-4-4 0-7 2-9 4z m121-22l20 54c1 2 2 4 4 6 2 2 4 3 6 3 2 0 4-1 6-2 2 0 4-2 5-3 1-2 2-3 2-5 0-3-1-5-1-7l-31-77c-2-6-6-9-11-9-2 0-5 0-7 2-2 1-3 3-4 5l-31 79c-1 2-1 5-1 7 0 3 1 5 4 7 2 2 5 3 8 3 3 0 5-1 6-3 2-2 4-4 5-6z m123 0l-14 0c-3 0-6 1-8 3-2 2-3 4-3 7 0 3 1 6 3 8 2 1 5 2 8 2l25 0c4 0 7-1 9-3 2-3 3-6 3-11 0-13-4-24-13-34-8-9-19-13-33-13-7 0-14 1-20 4-6 3-12 7-16 12-9 9-13 22-13 37 0 9 2 18 7 26 4 8 10 14 18 19 7 4 16 6 25 6 11 0 20-2 28-7 6-4 10-8 10-12 0-3-1-6-3-8-2-2-4-3-7-3-2 0-5 1-8 3l-6 3c-3 3-8 4-14 4-5 0-10-2-14-5-4-3-7-7-9-11-2-5-3-11-3-16 0-6 1-11 3-16 2-4 5-8 9-11 4-3 8-5 14-5 7 0 13 3 17 8 2 3 3 7 5 13z"/>
<glyph unicode="&#86;" d="M215 151c154-20 202 108 197 154-2 21-16 36-36 36-19 0-36-17-36-36 1-26 20-134-125-154z m190 214c-71 138-204 105-239 76-16-14-20-34-9-50 11-17 34-21 50-10 20 15 107 86 198-16z m-272 48c-92-126-1-229 40-247 20-8 40-3 49 15 10 17 3 39-14 49-23 11-127 46-75 183z m-133-362l0 36c0 1 1 3 1 4 1 1 3 1 4 1 2 0 3 0 4-1 1-1 1-3 1-4l0-36c0-1 0-2-1-4-1-1-2-1-4-1-1 0-3 0-4 1 0 2-1 3-1 4z m29 23l0-23c0-1 0-3-1-4-1-1-2-1-4-1-2 0-3 0-4 1-1 1-1 3-1 4l0 36c0 1 0 3 1 4 1 1 2 1 4 1 2 0 3-1 4-2l20-25 0 21c0 2 1 3 1 5 1 1 3 1 4 1 2 0 3 0 4-1 1-1 1-3 1-5l0-34c0-2 0-4-1-5-1-1-2-1-3-1-2 0-4 0-5 2z m56 8l0-31c0-1 0-2-1-4-1-1-2-1-4-1-1 0-3 0-4 1-1 2-1 3-1 4l0 31-6 0c-2 0-3 1-4 2-1 0-1 1-1 3 0 1 0 3 1 3 1 1 2 2 4 2l22 0c2 0 3-1 4-2 1 0 1-2 1-3 0-2 0-3-1-3-1-1-2-2-4-2z m27 0l0-8 10 0c1 0 2-1 3-2 1 0 2-1 2-3 0-1-1-2-2-3-1-1-2-2-3-2l-10 0 0-8 11 0c1 0 2-1 3-2 1 0 2-2 2-3 0-2-1-3-2-3-1-1-2-2-3-2l-15 0c-2 0-4 1-5 2-1 1-1 3-1 5l0 32c0 2 0 4 1 5 2 1 3 1 5 1l15 0c1 0 2 0 3-1 1-1 2-2 2-3 0-2-1-3-2-4-1-1-2-1-3-1l-11 0z m33-26l11 0c2 0 3-1 4-2 1 0 1-1 1-3 0-1 0-2-1-3-1-1-2-2-4-2l-14 0c-2 0-4 1-5 2-1 1-2 3-2 5l0 34c0 1 1 3 1 4 1 1 3 1 4 1 2 0 3 0 4-1 1-1 1-3 1-4l0-31z m31 0l10 0c2 0 3-1 4-2 1 0 1-1 1-3 0-1 0-2-1-3-1-1-2-2-4-2l-14 0c-2 0-4 1-5 2-1 1-2 3-2 5l0 34c0 1 1 3 1 4 1 1 3 1 4 1 2 0 3 0 4-1 1-1 1-3 1-4l0-31z m19 34c0 2 1 3 2 4 1 1 2 2 4 2 1 0 2 0 3-1 0 0 1-1 2-2 0-1 1-2 1-3 0-1-1-3-2-4-1-1-3-1-4-1-2 0-3 0-4 1-1 1-2 3-2 4z m1-39l0 25c0 1 0 3 1 4 1 1 2 1 4 1 1 0 2 0 3-1 1-1 2-3 2-4l0-25c0-1-1-2-2-3-1-2-2-2-3-2-2 0-3 1-4 2-1 1-1 2-1 3z m36 13l9 24c0 1 1 2 2 3 1 1 2 1 3 1 1 0 1 0 2 0 1-1 2-1 2-2 1-1 1-1 1-2 0-1 0-3 0-4l-14-34c-1-3-3-4-5-4-1 0-2 0-3 0-1 1-2 2-2 3l-14 36c-1 1-1 2-1 3 0 1 1 2 2 3 1 1 3 1 4 1 1 0 2 0 3-1 1-1 1-1 2-3z m35 18l0-8 10 0c2 0 3-1 4-2 1 0 1-1 1-3 0-1 0-2-1-3-1-1-3-2-4-2l-10 0 0-8 11 0c2 0 3-1 4-2 1 0 1-2 1-3 0-2 0-3-1-3-1-1-3-2-4-2l-15 0c-2 0-3 1-4 2-1 1-2 3-2 5l0 32c0 2 1 4 2 5 1 1 2 1 4 1l15 0c2 0 3 0 4-1 1-1 1-2 1-3 0-2 0-3-1-4-1-1-3-1-4-1l-11 0z m34-8l0-23c0-1-1-3-2-4-1-1-2-1-3-1-2 0-3 0-4 1-1 1-2 3-2 4l0 36c0 1 1 3 2 4 1 1 2 1 3 1 2 0 4-1 5-2l20-25 0 21c0 2 0 3 1 5 1 1 2 1 4 1 1 0 3 0 4-1 1-1 1-3 1-5l0-34c0-2-1-4-1-5-1-1-3-1-4-1-2 0-3 0-4 2z m56 8l0-31c0-1 0-2-1-4-1-1-2-1-4-1-2 0-3 0-4 1-1 2-1 3-1 4l0 31-7 0c-1 0-2 1-3 2-1 0-2 1-2 3 0 1 1 3 2 3 1 1 2 2 3 2l23 0c1 0 3-1 4-2 1 0 1-2 1-3 0-2 0-3-1-3-1-1-3-2-4-2z m20-13l7 0c2 0 3 0 4-1 1-1 1-1 1-3 0-1 0-2-1-3-1-1-2-1-4-1l-7 0c-1 0-2 0-3 1-1 1-2 2-2 3 0 2 1 2 2 3 1 1 2 1 3 1z m46-14l-17 0-2-4c0-3-2-5-4-5-2 0-3 0-4 1-1 0-2 2-2 3 0 1 0 2 0 3l13 34c0 1 1 3 3 4 1 1 2 2 4 2 2 0 4-1 5-2 1-1 2-3 3-4l12-34c1-1 1-2 1-3-1-1-1-2-2-3-1-1-3-1-4-1-1 0-2 0-3 1-1 1-1 2-2 3z m-3 9l-6 18-5-18z m19 14c0 3 0 6 2 8 2 2 4 4 6 5 3 1 5 2 8 2 2 0 4-1 6-1 2 0 3-1 5-2 1-1 2-2 2-4 0-1-1-2-2-3 0-1-2-2-3-2-1 0-1 0-2 0l-1 1c-2 1-4 1-5 1-1 0-3 0-4-1-1-1-1-2-1-3 0-2 1-3 4-4l3 0c4-2 7-3 10-5 3-2 4-5 4-9 0-5-1-8-4-11-1-2-3-3-6-4-2-1-4-1-7-1-5 0-9 1-12 2-1 1-2 2-3 3 0 1-1 2-1 3 0 1 1 2 2 3 1 1 2 2 3 2 1 0 2-1 2-1l4-1c2-1 3-1 5-1 2 0 3 0 4 1 1 1 2 2 2 3 0 2-1 3-2 4-1 0-2 1-3 1-1 0-2 1-4 1-3 1-5 2-7 3-1 1-3 2-4 4-1 2-1 4-1 6z m53-14l10 24c0 1 1 2 1 3 1 1 2 1 3 1 1 0 2 0 3 0 1-1 1-1 2-2 1-1 1-1 1-2 0-1 0-3-1-4l-13-34c-1-3-3-4-5-4-1 0-3 0-3 0-1 1-2 2-2 3l-14 36c-1 1-1 2-1 3 0 1 1 2 2 3 1 1 2 1 4 1 1 0 2 0 3-1 0-1 1-1 1-3z"/>
<glyph unicode="&#50;" d="M90 104l-23 0c11 14 31 30 31 49 0 18-14 29-31 29-19 0-33-14-33-31 0-5 4-10 11-10 14 0 6 20 21 20 5 0 8-3 8-9 0-10-19-30-24-36-5-5-17-15-17-23 0-6 5-10 12-10l45 0c6 0 10 6 10 11 0 5-4 10-10 10z m117 54c-9 0-15-5-20-9-5 7-14 9-20 9-7 0-14-3-18-8-1 3-5 6-10 6-7 0-11-4-11-11l0-51c0-6 4-11 11-11 6 0 10 5 10 11l0 33c0 7 4 13 11 13 7 0 10-6 10-13l0-33c0-6 5-11 11-11 6 0 10 5 10 11l0 33c0 7 4 13 11 13 7 0 11-6 11-13l0-33c0-6 4-11 10-11 6 0 11 5 11 11l0 39c0 17-12 25-27 25z m46 30c-6 0-11-5-11-11l0-83c0-6 5-11 11-11 6 0 11 5 11 11l0 83c0 6-5 11-11 11z m258 54c-40-22-100-54-142-54-20 0-38 7-55 16-9 4-19 10-29 16-12 8-25 16-39 22-87 37-144 20-217-8-7-3-14-6-22-9-2-1-5-2-7-3l0-17c5 1 9 3 13 5 15 6 28 11 42 16 61 23 111 32 184 1 13-5 25-13 38-20 2-1 4-3 6-4 26-16 53-30 86-30 44 0 100 28 143 51l0 18c0 0-1 0-1 0z m-101 59c0 0 19-20 19-20 6-6 5-17-1-23l-27-28c-10-10-24 4-14 14l17 17-17 17z m-60 0l-19-20c-6-6-5-17 1-23l27-28c10-10 24 4 14 14l-17 17 17 17-23 23m31 72c15 0 28 13 28 28 0 16-13 28-28 28-16 0-28-12-28-28 0-15 12-28 28-28z m30-61l0 19 23-22c2-2 5-3 7-3 3 0 6 2 7 4 4 4 4 10 0 14 0 0-27 29-30 32-7 6-18 10-35 10l-5 0c-17 0-27-4-34-10-4-3-31-32-31-32-4-4-4-10 0-14 2-2 4-4 7-4 3 0 5 1 7 3l23 22 1-19z"/>
<glyph unicode="&#90;" d="M491 214l-39 0 0 32c0 20-16 36-36 36l-380 0c-20 0-36-16-36-36l0-191c0-19 16-36 36-36l380 0c20 0 36 17 36 36l0 33 40 0c8 0 15 7 15 16l0 94c0 9-7 16-16 16z m-9-101l-30 0 0 76 30 0z m-66 193c27 0 50-20 55-46l6 4c17 10 22 32 11 49l-17 28 33 21c8 4 10 14 6 21l-50 81c-5 7-15 9-22 5l-34-21-17 28c-10 17-32 21-49 11l-291-181z m28 137l40-65-26-16-41 65z"/>
<glyph unicode="&#51;" d="M387 261c-13 0-26 2-38 5 1-3 1-6 1-10 0-52-42-94-94-94-52 0-94 42-94 94 0 52 42 94 94 94 4 0 7 0 11-1-4 12-6 25-6 37 0 37 16 70 41 93l-11 33-69 0-14-37c-5-14-16-26-29-32-14-6-30-5-44 1l-36 18-48-49 17-36c6-14 7-29 1-43-6-14-17-25-32-30l-37-13 0-70 37-13c15-5 26-16 32-30 6-14 5-29-1-43l-17-36 48-48 36 17c14 6 30 6 43 1 14-6 25-17 30-32l14-37 69 0 13 37c5 14 16 26 30 32 14 5 29 5 43-1l36-17 49 48-18 36c-6 14-6 29-1 43 6 14 17 25 32 30l37 14 0 69-33 11c-22-25-56-41-92-41z m29 210l-44 0 0-57-57 0 0-44 57 0 0-58 44 0 0 58 58 0 0 44-58 0z"/>
<glyph unicode="&#52;" d="M0 225c0 121 98 196 206 221 22-3 27-31 13-41-47-16-111-59-111-120 0-55 41-73 72-81 22-7 39-27 39-57 0-44-41-81-90-81-53 0-129 46-129 159z m285 0c0 121 98 196 206 221 22-3 27-31 13-41-47-16-111-59-111-120 0-55 40-73 72-81 22-7 39-27 39-57 0-44-41-81-90-81-53 0-129 46-129 159z"/>
<glyph unicode="&#53;" d="M396 293c0 0-120-115-120-115-6-6-12-9-20-9-8 0-14 3-20 9 0 0-120 115-120 115-6 5-8 12-8 21 0 8 2 15 8 21 13 13 26 13 40 0 0 0 100-96 100-96 0 0 100 96 100 96 14 13 27 13 40 0 6-6 8-13 8-21 0-9-2-16-8-21"/>
<glyph unicode="&#55;" d="M263 161c-14 0-25 12-25 26 0 14 11 25 25 25 14 0 25-11 25-25 0-14-11-26-25-26z m20 75l0-5c0 0-38 0-42 0l0 5c0 13 2 29 17 44 15 14 34 26 34 44 0 20-14 30-32 30-28 0-30-30-31-36l-41 0c2 31 15 75 73 75 50 0 73-34 73-66-1-50-51-59-51-91z m-282-217c21 41 44 98 43 137-28 34-44 77-44 122 0 124 121 215 256 215 134 0 256-90 256-215 0-131-144-252-341-204-35-22-114-45-170-55z m255 424c-114 0-206-74-206-166 0-48 21-78 50-108-6-44-20-83-20-83 0 0 42 12 90 40 183-49 292 57 292 151 0 92-92 166-206 166z"/>
<glyph unicode="&#56;" d="M357 431c-64 64-64-2-64-2l0-110-19 18 0 19-34 0 0-19-18-18 0 110c0 0 0 66-65 2 0 0-222-233-128-380 12-18 46-39 85 16 18 25 98-23 108 62l0 165 36 36 37-36 0-165c11-85 92-37 108-62 39-55 73-34 84-16 92 149-130 380-130 380z m-117 46l34 0 0-21-34 0z m0-39l34 0 0-20-34 0z m0-41l34 0 0-21-34 0z"/>
<glyph unicode="&#57;" d="M480 432c-35 42-134 72-218 48-90-26-134-82-139-182 0-3 0-5 0-7l-28-58c-2-3-2-7-1-10 2-3 4-6 8-7l19-6c0-4 0-8 0-12 0-4 0-7-1-11l170 0c32 0 92-14 92-70l5-46c0 1 0 1 1 1 32 19 68 41 89 72l-11 54c53 50 63 175 14 234z m-389-282c0 21-1 38-1 38-10 4-19 12-24 23-4 11-4 24 1 35l25 50c-52-10-92-56-92-111 0-62 50-112 113-112 5 0 11 0 16 1-1 1-2 2-4 3-27 19-34 53-34 73z m258-36c0 38-56 38-59 38l-168 0c0-2 0-4 0-6 0 0 0-1 0-1 0-2 0-4 1-6 0 0 0 0 0 0 0-2 0-4 1-5 0-1 0-1 0-1 0-2 1-4 1-5 0 0 0-1 0-1 1-1 1-3 2-4 0 0 0 0 0-1 1-1 1-3 2-4 0 0 0 0 0 0 1-2 1-3 2-4 0 0 0-1 0-1 1-1 2-2 3-3 2-3 4-5 6-7 3-2 6-4 9-5 3-2 7-3 11-4 13-4 31-5 56-5 13 0 28 2 39 5l0 0 17-70c28 9 55 18 81 31z"/>
<glyph unicode="&#54;" d="M289 329c-62 0-113-50-113-113 0-62 51-112 113-112 21 0 41 5 58 15l58-57c5-6 12-8 18-8 20 0 38 26 19 45l-57 57c11 18 17 38 17 60 0 63-51 113-113 113z m0-191c-43 0-78 35-78 78 0 43 35 78 78 78 43 0 78-35 78-78 0-43-35-78-78-78z m40-69l-146 0c-5-20-32-47-52-53l250 0c-19 5-47 34-52 53z m152 427l-450 0c-17 0-31-14-31-32l0-333c0-17 14-31 31-31l185 0c-34 21-58 58-64 100l-100 0 0 243 408 0 0-243-34 0c-2-14-5-27-11-39l44-44c5-6 9-11 12-17l10 0c17 0 31 14 31 31l0 333c0 18-14 32-31 32z"/>
</font>
</defs>
</svg>
